<svg xmlns="http://www.w3.org/2000/svg" viewBox="0 0 750 500"><path d="M260.44 83a53.4 53.4 0 0 1 13.07-5.69l2.69-12.94 21.87-.38 3.15 12.84A53.3 53.3 0 0 1 314.48 82l11-7.25 15.73 15.19-6.84 11.3a53.9 53.9 0 0 1 5.68 13.08L353 117l.38 21.86-12.8 3.14a53.3 53.3 0 0 1-5.22 13.27l7.25 11.05-15.19 15.73-11.3-6.85a53.4 53.4 0 0 1-13.07 5.68l-2.7 12.94-21.86.38-3.15-12.83a53.5 53.5 0 0 1-13.26-5.22L251 183.41l-15.73-15.19 6.85-11.29a53.6 53.6 0 0 1-5.68-13.08l-12.94-2.69-.38-21.87 12.88-3.15a53.7 53.7 0 0 1 5.22-13.26l-7.24-11 15.16-15.78zm11.65 29.12a23.46 23.46 0 1 0 33.17-.58 23.45 23.45 0 0 0-33.17.53Z" style="fill:#e0e0e0"/><path d="M161.28 57.08a34.3 34.3 0 0 1 8.3-3.61l1.71-8.21 13.87-.26 2 8.15a33.8 33.8 0 0 1 8.42 3.31l7-4.6 10 9.64-4.34 7.17a33.8 33.8 0 0 1 3.6 8.3L220 78.7l.25 13.87-8.15 2a33.8 33.8 0 0 1-3.31 8.42l4.6 7-9.64 10-7.17-4.34a34.4 34.4 0 0 1-8.3 3.6l-1.71 8.22-13.87.24-2-8.15a33.8 33.8 0 0 1-8.42-3.31l-7 4.6-10-9.64 4.35-7.17a34 34 0 0 1-3.61-8.3L137.85 94l-.24-13.87 8.15-2a33.8 33.8 0 0 1 3.31-8.42l-4.6-7 9.64-10 7.17 4.35Zm7.4 18.48a14.89 14.89 0 1 0 21-.37 14.9 14.9 0 0 0-21 .37M642.53 234.24a35.7 35.7 0 0 1 8.73-3.79l1.79-8.64 14.59-.25 2.1 8.56a36.4 36.4 0 0 1 8.86 3.48l7.37-4.83 10.5 10.14-4.57 7.53a36 36 0 0 1 3.79 8.73l8.63 1.8.26 14.59-8.57 2.1a35.7 35.7 0 0 1-3.48 8.85l4.83 7.37-10.13 10.5-7.54-4.57a35.7 35.7 0 0 1-8.69 3.79l-1.79 8.64-14.59.25-2.1-8.57a35.4 35.4 0 0 1-8.85-3.48l-7.38 4.84-10.49-10.14 4.57-7.54a35.6 35.6 0 0 1-3.8-8.72l-8.63-1.8-.26-14.59 8.57-2.1a35.4 35.4 0 0 1 3.48-8.85l-4.83-7.37 10.1-10.5 7.54 4.57Zm7.78 19.43a15.65 15.65 0 1 0 22.13-.39 15.66 15.66 0 0 0-22.13.39" style="fill:#f5f5f5"/><path d="M94.07 164.53a38.7 38.7 0 0 1 9.49-4.12l2-9.39 15.86-.28 2.28 9.31a38.7 38.7 0 0 1 9.63 3.79l8-5.25 11.41 11-5 8.19a38.7 38.7 0 0 1 4.12 9.49l9.39 2 .28 15.86-9.31 2.29a38.8 38.8 0 0 1-3.79 9.62l5.25 8-11 11.41-8.19-5a38.7 38.7 0 0 1-9.49 4.12l-2 9.43-15.86.28-2.26-9.28a38.8 38.8 0 0 1-9.62-3.79l-8 5.25-11.41-11 5-8.2a38.7 38.7 0 0 1-4.12-9.49l-9.39-2L67 190.9l9.31-2.29a38.8 38.8 0 0 1 3.8-9.61l-5.26-8 11-11.41 8.2 5Zm8.46 21.13a17 17 0 1 0 24.06-.42 17 17 0 0 0-24.06.42" style="fill:#e0e0e0"/><path d="M702.37 443.48c0 .15-147.54.26-329.49.26s-329.53-.11-329.53-.26 147.51-.26 329.53-.26 329.49.12 329.49.26" style="fill:#263238"/><path d="M634.84 335.07c-1.92-6.55-7-9.92-12.74-10-5.19 1.13-7 6.36-7.42 11.65s1.44 10.48 3.26 15.47q8.77 24 17.53 48.06l14.65-2.2c-5.53-21.58-9.02-41.62-15.28-62.98" style="fill:#455a64"/><path d="M622.3 324.62a20 20 0 0 0-1.69 2.46 16.86 16.86 0 0 0-1.92 7.79 35.7 35.7 0 0 0 2.31 11.78c1.47 4.32 3.08 9.07 4.78 14.05l8.57 25.58 2.54 7.78.67 2.12a4 4 0 0 1 .19.75 3.8 3.8 0 0 1-.3-.72c-.19-.52-.44-1.22-.76-2.09-.66-1.87-1.58-4.5-2.7-7.71l-8.73-25.53c-1.68-5-3.27-9.75-4.73-14.08a35.2 35.2 0 0 1-2.21-11.94 16.55 16.55 0 0 1 2.13-7.88 9 9 0 0 1 1.85-2.36" style="fill:#263238"/><path d="M646.85 396.59a4 4 0 0 1-.36-.69c-.21-.47-.55-1.14-.92-2-.78-1.78-1.78-4.4-2.85-7.71s-2.15-7.29-3.22-11.75-2.17-9.38-3.36-14.53-2.57-10-4.07-14.31a81 81 0 0 0-4.74-11.17 61 61 0 0 0-4.26-7c-.54-.81-1-1.38-1.31-1.8a3.2 3.2 0 0 1-.44-.65 5 5 0 0 1 .52.58c.32.4.83.95 1.4 1.74a53 53 0 0 1 4.42 6.93 77 77 0 0 1 4.88 11.18 145 145 0 0 1 4.13 14.36c1.17 5.15 2.29 10.06 3.32 14.53s2.08 8.45 3.1 11.76 2 5.94 2.67 7.74c.34.91.65 1.6.83 2.07a3.7 3.7 0 0 1 .26.72M618.11 349.73c0 .14-.75.49-1.76.78s-1.87.41-1.91.27.75-.5 1.76-.79 1.87-.41 1.91-.26M616.14 339.75a7.3 7.3 0 0 1-2.47.37 7.5 7.5 0 0 1-2.5 0 8.57 8.57 0 0 1 5-.4ZM617.43 330.51c-.09.12-.91-.37-1.83-1.09s-1.59-1.39-1.5-1.51.91.37 1.83 1.09 1.59 1.39 1.5 1.51M621.58 321.84c.15 0 .13.74.15 1.61s0 1.58-.12 1.61-.42-.68-.43-1.6.25-1.65.4-1.62M630.91 325.47c.12.08-.21.82-.74 1.65s-1.07 1.44-1.19 1.36.2-.82.74-1.65 1.06-1.44 1.19-1.36M637.28 335.57c.06.14-.68.61-1.66 1.06s-1.83.69-1.89.56.68-.61 1.66-1.06 1.83-.7 1.89-.56M641.32 346.06a6.74 6.74 0 0 1-4.83 1.31 9.1 9.1 0 0 1 2.4-.72 9.6 9.6 0 0 1 2.43-.59M624.62 343.71c-.15 0-.07-.78.16-1.65s.55-1.55.69-1.51.07.78-.16 1.65-.55 1.55-.69 1.51M627.47 357a5.1 5.1 0 0 1 .58-2.23c.45-1.19.94-2.1 1.08-2.05a5.1 5.1 0 0 1-.58 2.24c-.46 1.15-.94 2.04-1.08 2.04M621.9 360.86a5.3 5.3 0 0 1-2.13-.38c-1.15-.31-2.07-.59-2-.74s1-.1 2.18.22 2.05.76 1.95.9M625.64 371.62c.09.12-.52.74-1.36 1.39s-1.59 1.09-1.68 1 .51-.74 1.35-1.4 1.59-1.11 1.69-.99M628.72 382.37c0 .14-.73.49-1.72.77s-1.82.4-1.86.25.73-.49 1.71-.77 1.82-.4 1.87-.25M642 355.12c.09.12-.56.68-1.52 1.09s-1.8.48-1.83.33.71-.45 1.62-.83 1.62-.71 1.73-.59M644.7 371.93c-.05.14-.86-.07-1.79-.46s-1.64-.83-1.59-1 .87.07 1.8.47 1.64.85 1.58.99M648.81 383.87a5.7 5.7 0 0 1-2.37-.53c-1.26-.44-2.24-.9-2.19-1a5.6 5.6 0 0 1 2.37.54 5.5 5.5 0 0 1 2.19.99M629.77 394.13c-.08-.14.86-.83 1.94-1.75s1.91-1.74 2-1.64-.55 1.1-1.68 2.05a5 5 0 0 1-2.26 1.34M639.08 387.59c-.15 0-.39-.78-.8-1.71s-.82-1.65-.7-1.75.76.53 1.2 1.54.44 1.91.3 1.92M636 373.16c-.08.12-.71-.15-1.41-.6s-1.18-.93-1.1-1.06.71.15 1.4.6 1.11.9 1.11 1.06M646.7 361.16c0 .14-.82.49-2 .61a3.34 3.34 0 0 1-2-.18c0-.15.9-.24 2-.36s1.96-.23 2-.07M647.59 352.43c0 .15-.89.21-1.87-.2s-1.57-1.06-1.47-1.17.78.31 1.68.67 1.67.55 1.66.7M649.28 376.32c0 .15-.76.17-1.65.05s-1.63-.37-1.63-.48.76-.17 1.66-.05 1.64.34 1.62.48M676.2 360.28c-.11.11-.84-.43-1.64-1.2s-1.37-1.49-1.26-1.6.84.43 1.64 1.21 1.36 1.49 1.26 1.59" style="fill:#263238"/><path d="M703.13 327.22c.45-3.29.86-6.66.12-9.89s-2.89-6.33-6.06-7.31c-3.62-1.11-7.62.86-10 3.82s-3.43 6.71-4.39 10.37a378.3 378.3 0 0 0-11.93 77.15l14.89 3.54c9.24-26.46 13.54-49.9 17.37-77.68" style="fill:#455a64"/><path d="M695.11 309.71s0 .08-.1.23-.18.4-.31.66l-1.25 2.52c-.26.54-.6 1.13-.89 1.81s-.61 1.43-.95 2.22-.71 1.65-1.09 2.55-.69 1.89-1.06 2.92a131 131 0 0 0-4.33 14.66c-1.35 5.6-2.48 11.83-3.52 18.4-2 13.15-3.27 25.14-4.42 33.79-.57 4.32-1.05 7.82-1.45 10.23l-.45 2.77c0 .29-.09.53-.13.72a1 1 0 0 1-.06.25.8.8 0 0 1 0-.26c0-.19 0-.43.07-.72.09-.68.21-1.61.35-2.79.33-2.41.76-5.92 1.28-10.25 1.06-8.65 2.25-20.65 4.27-33.82 1-6.58 2.19-12.83 3.57-18.44a124 124 0 0 1 4.45-14.68c.38-1 .75-2 1.1-2.91l1.13-2.54c.36-.79.69-1.53 1-2.21s.66-1.26.94-1.8l1.35-2.47c.14-.26.26-.46.36-.64s.13-.21.14-.2M696.5 309.85a10.8 10.8 0 0 1 1.55 3.29 23.2 23.2 0 0 1 .46 9.9c-1.19 8.3-3 19.72-5.2 32.32s-4.38 24-6 32.17c-.84 4.1-1.54 7.42-2 9.71l-.6 2.63c-.06.27-.12.49-.16.68a.7.7 0 0 1-.08.23.9.9 0 0 1 0-.24l.12-.69c.12-.66.28-1.54.49-2.66.45-2.35 1.09-5.66 1.87-9.74 1.58-8.22 3.7-19.6 5.89-32.19s4.08-24 5.36-32.27a23.8 23.8 0 0 0-.28-9.79 20 20 0 0 0-1.42-3.35M703.29 349.9a8.6 8.6 0 0 1-2.79-1 8.4 8.4 0 0 1-2.56-1.5 8 8 0 0 1 2.79 1 8.1 8.1 0 0 1 2.56 1.5M706.56 334.68a9 9 0 0 1-2.87 1.26 9.4 9.4 0 0 1-3 .75 9 9 0 0 1 2.87-1.26 9.4 9.4 0 0 1 3-.75M706.8 322a4.8 4.8 0 0 1-2.27-.1 4.9 4.9 0 0 1-2.17-.63 5.1 5.1 0 0 1 2.26.1 4.9 4.9 0 0 1 2.18.63M692 312.53c-.14.07-.72-.82-1.31-2s-.95-2.15-.81-2.22.71.82 1.3 2a5.5 5.5 0 0 1 .82 2.22M686.12 319.64a4.46 4.46 0 0 1-2.17 0c-1.18-.14-2.12-.37-2.1-.52a4.4 4.4 0 0 1 2.16 0 4.6 4.6 0 0 1 2.11.52M681 334.48a5.35 5.35 0 0 1-2.2-.83c-1.14-.59-2-1.18-1.95-1.32a5.24 5.24 0 0 1 2.2.84c1.14.59 2.01 1.18 1.95 1.31M679.39 347.22c0 .14-.87.37-2 .49s-2 .11-2 0 .88-.37 2-.5 1.99-.14 2 .01M675.69 368c0 .15-.93.35-2.1.44a4.44 4.44 0 0 1-2.15-.09c0-.15.93-.35 2.1-.45a4.5 4.5 0 0 1 2.15.1M673.45 379.37c0 .14-.76.61-1.82 1.05s-2 .68-2 .54.76-.61 1.82-1 1.94-.73 2-.59M681.63 393.35a6.35 6.35 0 0 1-1.29-2.18 6.1 6.1 0 0 1-.79-2.41 11.7 11.7 0 0 1 2.08 4.59M686.4 371.85c.09.12-.73.94-1.84 1.84s-2.08 1.54-2.18 1.42.73-.94 1.84-1.84 2.08-1.54 2.18-1.42" style="fill:#263238"/><path d="M686.87 360.38c-.12.09-.75-.54-1.41-1.4s-1.1-1.64-1-1.73.75.54 1.41 1.4 1.13 1.64 1 1.73M690.11 346c.1.11-.59.92-1.56 1.81s-1.82 1.52-1.92 1.41.59-.92 1.56-1.81 1.81-1.55 1.92-1.41M692.16 335.48c-.11.1-.91-.66-1.78-1.69s-1.47-1.94-1.36-2 .91.66 1.78 1.69 1.48 1.91 1.36 2M695.58 321.37c.12.09-.41 1-1.17 2.05s-1.48 1.82-1.6 1.73.4-1 1.16-2 1.48-1.87 1.61-1.78M700.71 308.48c.13.08-.35 1-1.05 2.06s-1.38 1.85-1.51 1.76.35-1 1.06-2.06 1.38-1.85 1.5-1.76M704.55 314.91c.06.14-.59.51-1.43.82s-1.58.45-1.63.31.59-.51 1.44-.82 1.57-.45 1.62-.31M700.18 362.54a9.17 9.17 0 0 1-5.29-2.87 15.5 15.5 0 0 1 2.66 1.4 16 16 0 0 1 2.63 1.47M697.42 372.46c0 .15-.92.36-2.09.48s-2.13.08-2.14-.07.92-.36 2.09-.47 2.13-.09 2.14.06M693.58 389.55a8.64 8.64 0 0 1-3.3-5.07 17.5 17.5 0 0 1 1.65 2.54 18 18 0 0 1 1.65 2.53M668.58 395.17c-.09-.12.59-.75 1.51-1.4s1.74-1.07 1.82-.95-.59.75-1.51 1.4-1.74 1.07-1.82.95" style="fill:#263238"/><path d="M665.52 349.59c-.6-3.63-2.09-8-5.72-8.57a6.12 6.12 0 0 0-5.62 2.68 12.7 12.7 0 0 0-2.31 6.07 165.4 165.4 0 0 0 1.13 46.59l13.32 1.95a159.8 159.8 0 0 0-.8-48.72" style="fill:#455a64"/><path d="M659.8 341a14.5 14.5 0 0 0-1.41 1.72 12.5 12.5 0 0 0-1.49 5.8c-.11 2.57-.27 5.66-.33 9.06s0 7.17.19 11.1c.39 7.88 1.08 15 1.42 20.15.18 2.58.29 4.68.35 6.12v1.67a.29.29 0 1 1-.12 0l-.15-1.65c-.14-1.54-.32-3.6-.54-6.1-.46-5.15-1.22-12.26-1.6-20.16-.19-3.94-.24-7.71-.15-11.14 0-1.71.13-3.34.21-4.86s.14-2.93.26-4.22a12.16 12.16 0 0 1 1.72-5.9 5.3 5.3 0 0 1 1.64-1.59M666.73 345.06c.08.15-.69.72-1.73 1.28s-1.94.87-2 .72.7-.72 1.73-1.27 1.92-.88 2-.73M669 356a3.72 3.72 0 0 1-2.39-.11c-1.3-.33-2.22-.92-2.15-1.07s1.07.16 2.3.47 2.24.49 2.24.71M668.77 367.26c-.11.13-1.06-.5-2.12-1.4s-1.82-1.74-1.71-1.87 1.06.49 2.11 1.4 1.83 1.74 1.72 1.87" style="fill:#263238"/><path d="M622.89 391.72h77.06v13.66h-77.06z" style="fill:#4ade80"/><path d="m628.65 402.67 9.37 40.81h45.93l10.25-40.81z" style="fill:#4ade80"/><path d="M699.91 405.39c0 .15-17.38.27-38.82.27s-38.82-.12-38.82-.27 17.38-.27 38.82-.27 38.82.12 38.82.27M661.39 357.55c-.16.07-.65-.71-1.1-1.74s-.69-1.91-.53-2 .65.71 1.1 1.74.69 1.93.53 2M659.61 369.92c-.15-.08.2-1.09.79-2.27s1.2-2.06 1.35-2-.2 1.09-.8 2.27-1.19 2.08-1.34 2M661.94 383.52c-.17.05-.66-1.08-1.11-2.53a6.4 6.4 0 0 1-.52-2.71 12.36 12.36 0 0 1 1.63 5.24M648.44 389.15c-.11-.13.56-.83 1.48-1.57s1.77-1.21 1.87-1.08-.56.84-1.48 1.57-1.76 1.21-1.87 1.08" style="fill:#263238"/><rect width="454.85" height="300.79" x="150.63" y="135.8" rx="14.57" style="fill:#455a64"/><path d="M132.85 417.16h492.8v8.52a17.8 17.8 0 0 1-17.8 17.8h-457.2a17.8 17.8 0 0 1-17.8-17.8z" style="fill:#455a64"/><path d="m333.21 414.34 6.12 9.73h86.05l5.68-9.73z" style="fill:#263238"/><rect width="412.36" height="244.6" x="171.67" y="156.35" rx="3.27" style="fill:#ebebeb"/><path d="M583.6 401.31H171.23l.45-226.68H583.6z" style="fill:#fff"/><path d="M205.5 165.8a3.3 3.3 0 1 1-3.3-3.3 3.29 3.29 0 0 1 3.3 3.3M185.54 165.8a3.3 3.3 0 1 1-3.3-3.3 3.29 3.29 0 0 1 3.3 3.3M195.12 165.8a3.3 3.3 0 1 1-3.3-3.3 3.29 3.29 0 0 1 3.3 3.3M601.57 414.34c0 .17-101 .3-225.46.3s-225.48-.13-225.48-.3 100.93-.29 225.48-.29 225.46.13 225.46.29" style="fill:#263238"/><path d="M524.31 376.28h-6a.5.5 0 0 1 0-1h5.5v-5.5a.5.5 0 0 1 .5-.5.5.5 0 0 1 .5.5v6a.5.5 0 0 1-.5.5M506.64 376.28H495a.5.5 0 0 1 0-1h11.66a.5.5 0 0 1 0 1Zm-23.33 0h-11.66a.5.5 0 0 1 0-1h11.66a.5.5 0 0 1 0 1m-23.33 0h-11.66a.5.5 0 1 1 0-1H460a.5.5 0 0 1 0 1Zm-23.33 0H425a.5.5 0 0 1 0-1h11.66a.5.5 0 0 1 0 1ZM413.32 376.28h-6a.5.5 0 0 1-.5-.5v-6a.5.5 0 0 1 .5-.5.5.5 0 0 1 .5.5v5.5h5.5a.5.5 0 0 1 0 1M407.32 357.78a.51.51 0 0 1-.5-.5v-12.51a.5.5 0 0 1 .5-.5.5.5 0 0 1 .5.5v12.51a.5.5 0 0 1-.5.5m0-25a.5.5 0 0 1-.5-.5v-12.5a.5.5 0 0 1 .5-.5.5.5 0 0 1 .5.5v12.5a.5.5 0 0 1-.5.48Zm0-25a.51.51 0 0 1-.5-.5v-12.53a.5.5 0 0 1 .5-.5.5.5 0 0 1 .5.5v12.51a.5.5 0 0 1-.5.5ZM407.32 282.74a.5.5 0 0 1-.5-.5v-6a.51.51 0 0 1 .5-.5h6a.5.5 0 0 1 .5.5.5.5 0 0 1-.5.5h-5.5v5.5a.5.5 0 0 1-.5.5M506.64 276.74H495a.5.5 0 0 1-.5-.5.5.5 0 0 1 .5-.5h11.66a.5.5 0 0 1 .5.5.5.5 0 0 1-.52.5m-23.33 0h-11.66a.5.5 0 0 1-.5-.5.5.5 0 0 1 .5-.5h11.66a.5.5 0 0 1 .5.5.5.5 0 0 1-.5.5m-23.33 0h-11.66a.5.5 0 0 1-.5-.5.5.5 0 0 1 .5-.5H460a.5.5 0 0 1 .5.5.5.5 0 0 1-.5.5Zm-23.33 0H425a.5.5 0 0 1-.5-.5.5.5 0 0 1 .5-.5h11.66a.5.5 0 0 1 .5.5.5.5 0 0 1-.51.5M524.31 282.74a.5.5 0 0 1-.5-.5v-5.5h-5.5a.5.5 0 0 1-.5-.5.5.5 0 0 1 .5-.5h6a.51.51 0 0 1 .5.5v6a.5.5 0 0 1-.5.5M524.31 357.78a.5.5 0 0 1-.5-.5v-12.51a.5.5 0 0 1 .5-.5.5.5 0 0 1 .5.5v12.51a.51.51 0 0 1-.5.5m0-25a.5.5 0 0 1-.5-.5v-12.5a.5.5 0 0 1 .5-.5.5.5 0 0 1 .5.5v12.5a.5.5 0 0 1-.5.48Zm0-25a.5.5 0 0 1-.5-.5v-12.5a.5.5 0 0 1 .5-.5.5.5 0 0 1 .5.5v12.5a.5.5 0 0 1-.5.47Z" style="fill:#e0e0e0"/><path d="M408 72.32a17.45 17.45 0 0 0 .38 16.19c1.35 2.36 3.36 4.84 2.63 7.48s-3.88 4-4.51 6.67c-.74 3.11 2.34 5.74 3 8.84a6.35 6.35 0 0 1-4.11 7.11 24.8 24.8 0 0 0 13.34-.47c.41-1.81.83-3.61 1.24-5.42-.52 1.94.83 4 2.63 4.87a10.44 10.44 0 0 0 5.92.54 31.68 31.68 0 0 0 23-15.78" style="fill:#263238"/><path d="M464.82 72c-1.5-1.59-3.37-2.84-4.7-4.58-2.85-3.74-3-9.39-6.81-12.18-2.71-2-6.41-1.83-9.75-1.34s-6.84 1.22-10 .12c-2.34-.8-4.26-2.52-6.58-3.33-3.32-1.16-7-.33-10.31 1a21.35 21.35 0 0 0-8.87 6.09 11.54 11.54 0 0 0-2.46 10.13c.48 1.69 1.44 3.24 1.65 5 .24 1.92-.47 3.83-.55 5.76a9.16 9.16 0 0 0 6.81 9l36 18.16c5.55-.47 16-8 18-13.21S468.63 76 464.82 72" style="fill:#263238"/><path d="M412.11 83.7c-2.15-7-.77-17.08 6.34-19l23.38-2.82a4.25 4.25 0 0 1 5.17 2.69l17.77 50a.92.92 0 0 0 1.41-.15.3.3 0 0 1 .52.25c-.78 4.64.13 15.48-13.87 16.4-3.13.2-9.28.45-11-2.46l-3.32-8c-1.62-4.11-2.26-5.8-2.24-5.76s-9.32 1.91-15.44-8.75c-3.1-5.29-6.33-14.65-8.72-22.4" style="fill:#ae7461"/><path d="M419.43 92.75a1.56 1.56 0 0 0 2 .93 1.5 1.5 0 0 0 1-1.89 1.56 1.56 0 0 0-2-.93 1.5 1.5 0 0 0-1 1.89M433.6 87.42a1.55 1.55 0 0 0 2 .92 1.49 1.49 0 0 0 1-1.89 1.56 1.56 0 0 0-2-.93 1.51 1.51 0 0 0-1 1.9M415.44 88.16c.27.18 1.2-1.27 3-1.81s3.35.08 3.47-.23c.06-.14-.28-.52-1-.82a4.2 4.2 0 0 0-2.86-.12 4.24 4.24 0 0 0-2.27 1.74c-.42.66-.47 1.16-.34 1.24M431 82.91c.31.14 1.16-1.4 3-2.17s3.54-.36 3.64-.68c.05-.15-.34-.48-1.1-.68a4.7 4.7 0 0 0-3 .26 4.63 4.63 0 0 0-2.24 2c-.48.7-.49 1.21-.3 1.27M430.27 95.9a11 11 0 0 0-2.74.52c-.42.11-.83.18-1-.07a2.08 2.08 0 0 1-.18-1.28v-3.51c0-5-.14-9-.34-9s-.38 4-.39 9v3.5a2.48 2.48 0 0 0 .39 1.65 1.1 1.1 0 0 0 .89.33 3.3 3.3 0 0 0 .72-.17 11.6 11.6 0 0 0 2.65-.97" style="fill:#263238"/><path d="M436.21 114.86a31.43 31.43 0 0 0 13.79-9.93s-.82 9.44-12.67 12.77ZM432.58 99.46a3.07 3.07 0 0 1 2.55-1.5 2.78 2.78 0 0 1 2 .73 1.73 1.73 0 0 1 .4 2 2 2 0 0 1-2.11.87 6.4 6.4 0 0 1-2.31-1 1.8 1.8 0 0 1-.55-.43.54.54 0 0 1-.08-.61" style="fill:#6f4439"/><path d="M435.68 96.13c-.27.08.37 1.79-.63 3.55s-2.91 2.29-2.83 2.53.53.17 1.31-.1a4.65 4.65 0 0 0 2.4-2 4 4 0 0 0 .41-2.94c-.2-.75-.55-1.09-.66-1.04M428 78c.38.3 1.71-.77 3.52-1.61s3.48-1.23 3.48-1.72c0-.23-.47-.44-1.25-.48a6.45 6.45 0 0 0-2.94.65 6.6 6.6 0 0 0-2.38 1.87c-.43.63-.57 1.13-.43 1.29M413.53 83.36c.46.27 1.78-.49 3.47-1s3.21-.6 3.44-1.07c.1-.23-.23-.54-.95-.71a6.44 6.44 0 0 0-5.57 1.64c-.5.57-.59 1.01-.39 1.14" style="fill:#263238"/><path d="M447 61.36c-1.75-1.08-4-1-6-.85a112.5 112.5 0 0 0-26.19 5.16c-.23 2.1 1.73 3.88 3.8 4.35s4.21 0 6.32-.15 4.45 0 6 1.38 2.05 4 3.64 5.6c2.73 2.72 7.85 1.59 10.57 4.33 2.05 2.06 1.85 5.4 2.71 8.18a10.57 10.57 0 0 0 6.72 6.79 10.73 10.73 0 0 0 7.66-.48l-11.64-29c-.78-2.03-1.7-4.18-3.59-5.31" style="fill:#263238"/><path d="M477.35 76.09c-2.13-.62-4.55-.89-6-2.51-2.18-2.36-1.47-6.69-4.11-8.54-2.4-1.68-6.24.28-8.57-1.5-1.83-1.38-1.49-3.53-2.62-5s-4.1-1.77-5.67-.79l-4.19 24.76c1.73 6.82 2.09 10.72 5.16 13.74a31.8 31.8 0 0 1 4.86 5.13c1.29 2 1.87 4.63.72 6.71 8-3.06 13.4-10.52 18.28-17.59l5.17-7.47a5.8 5.8 0 0 0 1.19-2.54c.2-2.17-2.1-3.78-4.22-4.4" style="fill:#263238"/><path d="M474.48 88.56a4.3 4.3 0 0 1-.76.55 8 8 0 0 1-2.49 1 8.23 8.23 0 0 1-4.21-.21 7.93 7.93 0 0 1-4.33-3.44 8.3 8.3 0 0 1-1.14-3.07 13.2 13.2 0 0 1 .1-3.54 12.8 12.8 0 0 0 .09-3.66 4.21 4.21 0 0 0-1.95-3.07c-1.15-.6-2.56-.21-4-.12a3.9 3.9 0 0 1-2.22-.43 3.8 3.8 0 0 1-1.48-1.76 24 24 0 0 1-1-4.42 4.6 4.6 0 0 0-.91-2 3 3 0 0 0-1.85-1 8.55 8.55 0 0 0-4.41.81 9.36 9.36 0 0 1-4.54.73 8.33 8.33 0 0 1-4.12-1.65A13.6 13.6 0 0 1 432.5 60a18.8 18.8 0 0 0-2.39-3 8.3 8.3 0 0 0-3.1-1.86 9.67 9.67 0 0 0-10.83 3.39 11.8 11.8 0 0 0-1.92 3.66 14.7 14.7 0 0 0-.61 3.5.6.6 0 0 1 0-.23v-.7a11.5 11.5 0 0 1 .44-2.62 11.7 11.7 0 0 1 1.91-3.83 10 10 0 0 1 11.18-3.62 9 9 0 0 1 3.28 1.94 18.7 18.7 0 0 1 2.46 3.16 13.3 13.3 0 0 0 2.66 3.09 7.76 7.76 0 0 0 3.88 1.53 8.85 8.85 0 0 0 4.32-.7 9 9 0 0 1 4.66-.84 3.5 3.5 0 0 1 2.15 1.2 5.35 5.35 0 0 1 1 2.16 24.4 24.4 0 0 0 1 4.35 3.27 3.27 0 0 0 1.29 1.54 3.4 3.4 0 0 0 1.95.38c.7 0 1.4-.16 2.12-.19a4 4 0 0 1 2.12.38 4.59 4.59 0 0 1 2.17 3.39 12.9 12.9 0 0 1-.11 3.79 13 13 0 0 0-.13 3.43 7.9 7.9 0 0 0 1.06 3 7.76 7.76 0 0 0 4.12 3.36 8.16 8.16 0 0 0 4.08.28 9.6 9.6 0 0 0 3.22-1.38" style="fill:#455a64"/><path d="M478.58 70.42a1.6 1.6 0 0 1 .55.51 3 3 0 0 1 .57 2.07 3.3 3.3 0 0 1-.51 1.5 3.3 3.3 0 0 1-1.45 1.22 4.26 4.26 0 0 1-4.4-.53 5.5 5.5 0 0 1-1.65-2.08 7.7 7.7 0 0 1-.65-2.8c-.17-2 .18-4.1-.71-6.06a3.85 3.85 0 0 0-2.14-2.25 4.3 4.3 0 0 0-3.23.46 10.7 10.7 0 0 1-3.52 1.24 3.2 3.2 0 0 1-1.92-.5 4.4 4.4 0 0 1-1.36-1.43 14.8 14.8 0 0 1-1.33-3.55 8.2 8.2 0 0 0-1.67-3.08 8.87 8.87 0 0 0-5.82-3 12.6 12.6 0 0 0-5.94 1.33 17.5 17.5 0 0 1-5.27 1.55 11.43 11.43 0 0 1-7.53-2 7.9 7.9 0 0 1-2.07-2 15 15 0 0 0 2.18 1.85 11.3 11.3 0 0 0 3 1.41 11.1 11.1 0 0 0 4.38.44 17.4 17.4 0 0 0 5.14-1.58 13 13 0 0 1 6.15-1.4 9.22 9.22 0 0 1 6.14 3.12 8.7 8.7 0 0 1 1.77 3.25 14.8 14.8 0 0 0 1.28 3.44 3.17 3.17 0 0 0 2.84 1.7 10.1 10.1 0 0 0 3.34-1.2 4.84 4.84 0 0 1 3.59-.46 4.3 4.3 0 0 1 2.4 2.48 8.2 8.2 0 0 1 .64 3.2c0 1 0 2 .06 3a7.7 7.7 0 0 0 .59 2.67 5.2 5.2 0 0 0 1.52 2 4 4 0 0 0 4.07.56 3.1 3.1 0 0 0 1.36-1.1 2.9 2.9 0 0 0 .52-1.4 3 3 0 0 0-.45-2c-.27-.41-.49-.56-.47-.58M399.07 113.66a3.34 3.34 0 0 0 1 2 2.89 2.89 0 0 0 2.37.86 3.12 3.12 0 0 0 2.49-2.11 2.8 2.8 0 0 0-.1-1.93 5.6 5.6 0 0 0-1.21-1.8c-1-1.11-2.53-2.13-3.2-3.89a6.86 6.86 0 0 1 .27-5.56 8.1 8.1 0 0 1 1.82-2.4 12.3 12.3 0 0 1 2.58-1.7 16 16 0 0 0 2.54-1.54 4 4 0 0 0 1.49-2.28 4.84 4.84 0 0 0-.32-2.63 9.2 9.2 0 0 0-1.32-2.27 20 20 0 0 1-2.81-4.17 7.5 7.5 0 0 1-.37-4.39 9.8 9.8 0 0 1 1.53-3.31 19 19 0 0 0 1.37-2.34 5.7 5.7 0 0 0 .5-2.22s0 0 0 .15a2.5 2.5 0 0 1 0 .45 4.6 4.6 0 0 1-.39 1.69 16 16 0 0 1-1.31 2.4 10 10 0 0 0-1.42 3.24 7.23 7.23 0 0 0 .41 4.16 20.5 20.5 0 0 0 2.8 4.05 9.5 9.5 0 0 1 1.39 2.38 5.13 5.13 0 0 1 .35 2.89 4.48 4.48 0 0 1-1.61 2.61 17.3 17.3 0 0 1-2.63 1.6 11.5 11.5 0 0 0-2.48 1.62 7.6 7.6 0 0 0-1.71 2.26 6.38 6.38 0 0 0-.28 5.17c.59 1.62 2 2.61 3.08 3.78a5.9 5.9 0 0 1 1.26 1.94 3.13 3.13 0 0 1 .07 2.17 3.43 3.43 0 0 1-2.79 2.29 3.22 3.22 0 0 1-3.35-2.53 1.6 1.6 0 0 1-.02-.64" style="fill:#263238"/><rect width="122.69" height="98.51" x="400.26" y="210.1" rx="4.59" style="fill:#f5f5f5"/><path d="M518.36 308.61a8 8 0 0 0 1.1-.17 4.63 4.63 0 0 0 2.62-1.83 4.5 4.5 0 0 0 .79-2.23v-10.23c0-11-.05-26.91-.08-46.56v-32.15a6.2 6.2 0 0 0-.22-2.08 4.4 4.4 0 0 0-1.08-1.77 4.5 4.5 0 0 0-1.79-1.07 6.8 6.8 0 0 0-2.14-.2H404.87a4.36 4.36 0 0 0-4.08 2.84 7.1 7.1 0 0 0-.27 2.67V304a4.44 4.44 0 0 0 .56 2.14 4.39 4.39 0 0 0 3.61 2.2h50.06l46.56.09h17.07-17.07l-46.56.08h-50.09A4.81 4.81 0 0 1 400 304v-88.13a7.6 7.6 0 0 1 .3-2.85 4.87 4.87 0 0 1 4.57-3.18h112.64a7 7 0 0 1 2.27.21 4.84 4.84 0 0 1 3.16 3.13 6.8 6.8 0 0 1 .23 2.22v32.15c0 19.65-.07 35.56-.09 46.56v10.24a4.64 4.64 0 0 1-.83 2.28 4.58 4.58 0 0 1-2.69 1.82 4 4 0 0 1-1.2.16" style="fill:#263238"/><path d="M419.9 204.16h84.04v111.81H419.9z" style="fill:#455a64" transform="rotate(-89.76 461.923 260.06)"/><path d="m405.84 301.85 39.27-52.07 24.05 32.78 16.48-17.41 32.01 37.17zM479.59 243.52a8.8 8.8 0 1 1-8.76-8.84 8.8 8.8 0 0 1 8.76 8.84" style="opacity:.2"/><path d="M407.24 136.77s-.62-1.24 2.88-5.15 27.61-12.84 27.61-12.84 9.38 11.34 18.09 3.55a22.9 22.9 0 0 0 7.34-12.54s21.29-1.19 21.74.2l5.7 26.77-10 .05Z" style="fill:#4ade80"/><path d="m458 198 37-37-4.72-20.24 19.94-5.87s5.9 28.28 5.11 33.25c-1.53 9.64-47 37.17-47 37.17Z" style="fill:#ae7461"/><path d="M483.87 109.59a27 27 0 0 1 16.2 8c7.68 7.91 16.87 28.65 16.87 28.65l-26 6.35Z" style="fill:#4ade80"/><path d="m453.25 202.05-10.41 6.49s-5.24 8.73-6 10.92a61 61 0 0 0-1.47 7.66s2.26 2.07 3.19-1.12l1.07-2.44-.9 5.68S441 231 442.16 228a36.5 36.5 0 0 0 1.62-5.89l3.55-4.89-3.58 11.68s-.68 2.36 1.41 2.15c.83-.08 2.68-4.2 2.68-4.2s1.52 2 2.79.2l6.19-8.75s6.64-8.2 6.66-8.42l4.88-4.58L458 198l-4.49 3.82a1 1 0 0 1-.26.23" style="fill:#ae7461"/><path d="M438.77 229a4.3 4.3 0 0 0 .15-.66c.09-.46.2-1.07.34-1.8s.3-1.68.47-2.68c.09-.51.18-1 .28-1.59a8.4 8.4 0 0 1 .51-1.62 29.8 29.8 0 0 1 3-5.21c.45-.63.83-1.13 1.08-1.48a4.5 4.5 0 0 0 .4-.55 3 3 0 0 0-.46.5c-.28.33-.68.81-1.14 1.44a26 26 0 0 0-3.1 5.22 8.7 8.7 0 0 0-.53 1.66c-.09.55-.17 1.08-.25 1.59-.16 1-.31 1.91-.43 2.69l-.27 1.82a3.3 3.3 0 0 0-.05.67M452.67 216.79a2.4 2.4 0 0 0-.24.34l-.59 1c-.49.83-1.16 2-1.89 3.27l-.09.23c-.58 1.43-1.1 2.72-1.46 3.67-.19.47-.33.85-.42 1.12a2 2 0 0 0-.13.42 1.6 1.6 0 0 0 .21-.39l.48-1.09c.4-.93.94-2.22 1.52-3.65l.09-.23c.73-1.29 1.38-2.46 1.83-3.31.23-.42.41-.77.54-1s.17-.37.15-.38" style="fill:#6f4439"/><path d="M394.32 134.26a3 3 0 0 1 .13.32 6 6 0 0 1 .32 1.55 4.7 4.7 0 0 0 0 .75 2.5 2.5 0 0 0 .21.44 7.7 7.7 0 0 1 .27 3.09 5.9 5.9 0 0 0 .57 3.31 2.19 2.19 0 0 0 2.91.9 1.48 1.48 0 0 0 1.11 1.62 2.13 2.13 0 0 0 2-.61 4 4 0 0 0 1-1.9 1.64 1.64 0 0 0 1.63 1.59 2.52 2.52 0 0 0 2.08-1.28 5.8 5.8 0 0 0 .72-2.42 27 27 0 0 1 .51-3.24s1.07.17 1.55.21c.66.07.14 0 .14 0a7.2 7.2 0 0 0 1-1.77c.68-1.4 1.19-2.29 1.71-3.56.39-.95.64-1.9.06-2.52-1.42-1.49-4.19 1.54-4.19 1.54-.39-1.05-3.61-1.23-4.23.18-.26-.77-.16-1.22-.79-1.74a2.6 2.6 0 0 0-2.28-.58 1.86 1.86 0 0 0-1.38 1.79 3 3 0 0 0-5.07-.11 3 3 0 0 0-.47 1 1.6 1.6 0 0 0-.08.42.6.6 0 0 0 .07.19c.18.31.37.57.5.83" style="fill:#ae7461"/><path d="M390.92 132.37a2.44 2.44 0 0 0-1.92.63 4 4 0 0 0-.6 2.67c1 .19 1.47.22 2.44.41.21 0 .38 0 .55.1.45.32.37 1.39.55 1.91a1.87 1.87 0 0 0 2.36 1 2.51 2.51 0 0 0 1.52-2.23 3.92 3.92 0 0 0-1-2.61 5.45 5.45 0 0 0-3.9-1.88" style="fill:#ae7461"/><path d="M399.23 131.72c.18 0 .18 2.92 0 6.49s-.48 6.47-.66 6.46-.18-2.92 0-6.49.48-6.47.66-6.46M403.88 132.36c.18 0 .42 2.63.13 5.89s-1 5.82-1.13 5.78.2-2.63.47-5.84.34-5.83.53-5.83M408.25 132.36c.18 0 .26 2.2-.08 4.86s-.75 4.79-.92 4.77-.08-2.2.26-4.85.56-4.79.74-4.78M392.32 132.92c0-.08.47-.18 1.14.12a3.73 3.73 0 0 1 1.79 2.09 7.5 7.5 0 0 1 .44 2.68c-.08.8-.66 1-.68.93s.27-.35.21-1a13.7 13.7 0 0 0-.59-2.42 4 4 0 0 0-1.4-1.92c-.51-.31-.92-.4-.91-.48" style="fill:#6f4439"/><rect width="158.42" height="88.07" x="227" y="289.63" rx="8.65" style="fill:#fff"/><path d="M376.77 377.7s.42 0 1.23-.12a8.63 8.63 0 0 0 6.88-5.77 9.9 9.9 0 0 0 .45-3.68v-4.28c0-12.11-.05-29.61-.08-51.23V300a13.6 13.6 0 0 0-.4-4.28 8.51 8.51 0 0 0-6.21-5.69 9.8 9.8 0 0 0-2.25-.21H235.73a8.5 8.5 0 0 0-5.49 2.05 8.27 8.27 0 0 0-2.8 5.09 21 21 0 0 0-.11 3v69.66a8.34 8.34 0 0 0 3.88 6.53 8.64 8.64 0 0 0 4.95 1.32h70.66l51.23.08h18.78-4.85l-13.93.05-51.23.08H236.1a9.07 9.07 0 0 1-5.2-1.38 9 9 0 0 1-3.5-4.19 8.7 8.7 0 0 1-.61-2.72c-.06-.94 0-1.83 0-2.75V300a21 21 0 0 1 .11-3.08 8.84 8.84 0 0 1 3-5.42 9 9 0 0 1 5.83-2.17h140.66a10.2 10.2 0 0 1 2.34.22 8.91 8.91 0 0 1 6.5 6 13.8 13.8 0 0 1 .41 4.4v12.6c0 21.62-.07 39.12-.09 51.23v4.28a10.2 10.2 0 0 1-.48 3.73 8.6 8.6 0 0 1-3.63 4.55 8.3 8.3 0 0 1-3.39 1.22 5 5 0 0 1-.93.07Z" style="fill:#263238"/><path d="M243.9 304.51h23.53v4.44H243.9zM243.9 358.9h23.53v4.44H243.9z" style="fill:#4ade80"/><path d="M243.9 315.52h40.51v4.44H243.9z" style="fill:#e0e0e0"/><path d="M291.59 315.52h17.91v4.44h-17.91z" style="fill:#4ade80"/><path d="M351.08 315.52h11.77v4.44h-11.77z" style="fill:#263238"/><path d="M315.79 315.52h31.18v4.44h-31.18z" style="fill:#455a64"/><path d="M322.34 326.01h40.51v4.44h-40.51z" style="fill:#e0e0e0" transform="rotate(180 342.6 328.23)"/><path d="M297.26 326.01h17.91v4.44h-17.91z" style="fill:#455a64" transform="rotate(180 306.21 328.23)"/><path d="M243.9 326.01h11.77v4.44H243.9z" style="fill:#263238" transform="rotate(180 249.79 328.23)"/><path d="M259.79 326.01h31.18v4.44h-31.18z" style="fill:#4ade80" transform="rotate(180 275.375 328.23)"/><path d="M243.9 336.79h40.51v4.44H243.9z" style="fill:#e0e0e0"/><path d="M291.59 336.79h17.91v4.44h-17.91zM351.08 336.79h11.77v4.44h-11.77z" style="fill:#263238"/><path d="M282.39 347.77h11.77v4.44h-11.77z" style="fill:#4ade80"/><path d="M315.79 336.79h31.18v4.44h-31.18zM243.05 347.77h31.18v4.44h-31.18z" style="fill:#455a64"/><rect width="65.53" height="63.63" x="468.61" y="320.4" rx="8.1" style="fill:#fafafa"/><path d="M526 384a11 11 0 0 0 2.43-.43 8.11 8.11 0 0 0 5-4.67 8.3 8.3 0 0 0 .55-2.34c.06-.84 0-1.75 0-2.69v-44.08a17 17 0 0 0-.1-2.5 7.5 7.5 0 0 0-.76-2.38 7.9 7.9 0 0 0-3.59-3.52 7.7 7.7 0 0 0-2.49-.73c-.86-.08-1.79-.05-2.7-.05h-47.56a7.82 7.82 0 0 0-7.83 7.61v48.31a8.4 8.4 0 0 0 .58 2.39 7.95 7.95 0 0 0 7.51 4.85h13.29l26.19.09 7.12.05h2.48-2.48l-7.12.05-26.19.08H477a8.36 8.36 0 0 1-7.92-5.1 9 9 0 0 1-.62-2.52c-.06-.89 0-1.72 0-2.6v-45.76a8.33 8.33 0 0 1 8.35-8.12h47.56c.92 0 1.82 0 2.75.06a8.2 8.2 0 0 1 2.64.78 8.37 8.37 0 0 1 3.8 3.73 9.86 9.86 0 0 1 .89 5.09v46.79a8.6 8.6 0 0 1-.58 2.4 8.3 8.3 0 0 1-2.47 3.28 8.2 8.2 0 0 1-2.67 1.41 8 8 0 0 1-1.83.32c-.66.2-.9.2-.9.2" style="fill:#263238"/><path d="M483.1 335.39h35.73v12h-1.7q-.85-6.42-4.81-8.69a14.9 14.9 0 0 0-6.67-1.37v31.26q0 3.29 1.14 4.35t4.77 1.08v1.5h-21.1V374c2.32 0 3.86-.36 4.62-1.09s1.14-2.17 1.14-4.34V337.3a15.3 15.3 0 0 0-6.66 1.37q-4.26 2.32-4.81 8.69H483Z" style="fill:#263238"/><path d="M545.25 224.16v119.66a6.43 6.43 0 0 0 6.43 6.43h77.14a6.43 6.43 0 0 0 6.43-6.43V224.16a6.43 6.43 0 0 0-6.43-6.43h-77.14a6.43 6.43 0 0 0-6.43 6.43" style="fill:#fff"/><path d="M545.25 224.16a2 2 0 0 1 0-.28 5 5 0 0 1 .07-.84 6.45 6.45 0 0 1 6-5.37h7.3l46.51-.08h23.6a6.67 6.67 0 0 1 6.5 4.94 7.9 7.9 0 0 1 .23 2.21v119.17a6.73 6.73 0 0 1-2.38 5.12 6.6 6.6 0 0 1-2.54 1.34 10.1 10.1 0 0 1-2.83.24H552a7.3 7.3 0 0 1-2.45-.35 6.66 6.66 0 0 1-3.73-3.08 6.9 6.9 0 0 1-.77-2.31 21 21 0 0 1-.07-2.38v-54.65c0-19.63.06-35.52.08-46.51 0-5.48 0-9.74.05-12.64v-4.41 4.41c0 2.9 0 7.16.05 12.64 0 11 0 26.88.08 46.51v54.65a20 20 0 0 0 .07 2.31 6.1 6.1 0 0 0 .71 2.15 6.23 6.23 0 0 0 3.47 2.86 6.8 6.8 0 0 0 2.3.32h75.73a9.5 9.5 0 0 0 2.69-.23 5.9 5.9 0 0 0 2.35-1.23 6.24 6.24 0 0 0 2.19-4.72V224.78a7 7 0 0 0-.21-2.1 6.24 6.24 0 0 0-6.08-4.63h-23.6l-46.51-.08h-7.29a6.36 6.36 0 0 0-6 5.23c.18.58.22.96.19.96" style="fill:#263238"/><rect width="5.19" height="87.75" x="567.69" y="240.73" rx="2.45" style="fill:#e0e0e0"/><path d="M570.42 328.48a2.67 2.67 0 0 0 1.64-.71c1.07-.81.64-2.77.7-5 0-4.63 0-11.27-.09-19.46s0-18-.07-28.88v-30.71a4.6 4.6 0 0 0-.07-1.08 2.14 2.14 0 0 0-.48-.89 2.23 2.23 0 0 0-1.89-.72 2.17 2.17 0 0 0-1.76.91 2.1 2.1 0 0 0-.37.94 10 10 0 0 0 0 1.12v30.66c0 10.86 0 20.64-.06 28.87s-.07 14.84-.1 19.47v3.05a2.41 2.41 0 0 0 2.18 2.36h.46a2.3 2.3 0 0 1-.47 0 2.37 2.37 0 0 1-1.3-.45 2.52 2.52 0 0 1-1-2v-3.05c0-4.63-.05-11.27-.09-19.47s0-18-.07-28.87V242.8a2.7 2.7 0 0 1 .48-1.21 2.76 2.76 0 0 1 2.24-1.16 2.86 2.86 0 0 1 2.34.92 2.75 2.75 0 0 1 .61 1.14 5.4 5.4 0 0 1 .09 1.23v30.62c0 10.86 0 20.65-.06 28.88s-.07 14.83-.1 19.46v3.06a2.58 2.58 0 0 1-.83 2.06 2.16 2.16 0 0 1-1.93.68" style="fill:#263238"/><rect width="5.19" height="87.75" x="587.65" y="240.73" rx="2.45" style="fill:#e0e0e0"/><path d="M590.39 328.48a2.64 2.64 0 0 0 1.63-.71c1.08-.81.64-2.77.71-5 0-4.63-.06-11.27-.1-19.46s0-18-.06-28.88v-30.62a4.1 4.1 0 0 0-.07-1.08 1.94 1.94 0 0 0-.48-.89 2.21 2.21 0 0 0-1.88-.72 2.15 2.15 0 0 0-1.76.91 2.1 2.1 0 0 0-.37.94 10 10 0 0 0 0 1.12v30.69c0 10.86 0 20.64-.07 28.87s-.07 14.84-.09 19.47v3.05a2.43 2.43 0 0 0 2.18 2.36h.47a2.4 2.4 0 0 1-.47 0 2.4 2.4 0 0 1-1.31-.45 2.55 2.55 0 0 1-1-2v-3.05c0-4.63-.06-11.27-.1-19.47s0-18-.06-28.87v-31.86a2.8 2.8 0 0 1 .48-1.21 2.78 2.78 0 0 1 2.25-1.16 2.83 2.83 0 0 1 2.33.92 2.75 2.75 0 0 1 .61 1.14 4.5 4.5 0 0 1 .09 1.23v30.63c0 10.86 0 20.65-.07 28.88s-.07 14.83-.09 19.46v3.06a2.58 2.58 0 0 1-.82 2.06 2.17 2.17 0 0 1-1.95.64" style="fill:#263238"/><rect width="5.19" height="87.75" x="607.62" y="240.73" rx="2.45" style="fill:#e0e0e0"/><path d="M610.35 328.48a2.67 2.67 0 0 0 1.64-.71c1.07-.81.64-2.77.7-5 0-4.63-.05-11.27-.09-19.46s0-18-.07-28.88v-30.71a4.6 4.6 0 0 0-.07-1.08 2.14 2.14 0 0 0-.48-.89 2.22 2.22 0 0 0-1.88-.72 2.17 2.17 0 0 0-1.77.91 2.1 2.1 0 0 0-.37.94 10 10 0 0 0 0 1.12v30.66c0 10.86 0 20.64-.06 28.87s-.07 14.84-.09 19.47v3.05a2.41 2.41 0 0 0 2.18 2.36h.46a2.3 2.3 0 0 1-.47 0 2.4 2.4 0 0 1-1.3-.45 2.52 2.52 0 0 1-1.05-2v-3.05c0-4.63 0-11.27-.09-19.47s0-18-.07-28.87V242.8a2.7 2.7 0 0 1 .48-1.21 2.76 2.76 0 0 1 2.25-1.16 2.84 2.84 0 0 1 2.33.92 2.75 2.75 0 0 1 .61 1.14 5.4 5.4 0 0 1 .09 1.23v30.62c0 10.86 0 20.65-.06 28.88s-.07 14.83-.1 19.46v3.06a2.58 2.58 0 0 1-.83 2.06 2.16 2.16 0 0 1-1.89.68" style="fill:#263238"/><path d="M570 281.86h-1a5 5 0 0 1-5-5.05 5 5 0 0 1 5-5.05h1a5 5 0 0 1 5 5.05 5 5 0 0 1-5 5.05M591.22 300.88h-1a5 5 0 0 1-5-5 5 5 0 0 1 5-5h1a5 5 0 0 1 5 5 5 5 0 0 1-5 5M610.46 265h-1a5 5 0 0 1-5-5 5 5 0 0 1 5-5.05h1a5 5 0 0 1 5 5.05 5 5 0 0 1-5 5" style="fill:#4ade80"/><rect width="123.59" height="123.59" x="533.1" y="79.8" rx="8.33" style="fill:#fff"/><path d="M648.36 203.39s.42 0 1.23-.12a8.6 8.6 0 0 0 3.35-1.31 8.33 8.33 0 0 0 3.36-4.66 12.3 12.3 0 0 0 .3-3.72v-4.3c0-12.15-.05-29.73-.08-51.44V87.58a8.07 8.07 0 0 0-5.83-7.25 19.2 19.2 0 0 0-5.12-.32H541.44a8.08 8.08 0 0 0-8 7.36c-.08 4 0 8.14 0 12.16v94.97a8.34 8.34 0 0 0 1.13 4.66A7.5 7.5 0 0 0 536 201a7.2 7.2 0 0 0 2 1.33 9.3 9.3 0 0 0 4.61.81h35.52l51.44.08 14 .05h4.87-4.87l-14 .05-51.44.08h-35.52a9.8 9.8 0 0 1-4.8-.84 8.3 8.3 0 0 1-2.07-1.4 8.1 8.1 0 0 1-1.59-2 8.84 8.84 0 0 1-1.21-4.89V87.09a8.61 8.61 0 0 1 8.56-7.83h106.67a9 9 0 0 1 2.63.34 8.55 8.55 0 0 1 6.15 7.67c.06 1.7 0 3.35 0 5v45.26c0 21.71-.07 39.29-.09 51.44v4.3a12.8 12.8 0 0 1-.33 3.77 8.4 8.4 0 0 1-3.46 4.7 8.3 8.3 0 0 1-3.39 1.27 6 6 0 0 1-.93.07 2.5 2.5 0 0 1-.39.31" style="fill:#263238"/><path d="M600.68 140.42h-12.94A11.39 11.39 0 0 1 576.35 129v-27.88h35.73V129a11.39 11.39 0 0 1-11.4 11.42" style="fill:#e0e0e0"/><path d="M600.68 140.42a18 18 0 0 0 3.31-.61 11.6 11.6 0 0 0 3.5-1.87 11.1 11.1 0 0 0 3.29-4.13 13.1 13.1 0 0 0 1-6.43v-26.26l.34.35h-35.77l.36-.37v28.39a11 11 0 0 0 1.16 4.53 11.12 11.12 0 0 0 6.14 5.48c2.42.93 4.84.64 6.91.71l5.31.06 3.33.07h1.15-1.15l-3.33.07-5.31.05h-3.33a11.62 11.62 0 0 1-11.49-11.09c-.06-1.69 0-3.39-.05-5.17v-23.61h36.45v26.61a13.33 13.33 0 0 1-1.17 6.61 11.25 11.25 0 0 1-3.47 4.22 11.7 11.7 0 0 1-3.63 1.82 9.3 9.3 0 0 1-3.55.57" style="fill:#263238"/><path d="M576.53 101.39c5.2 3.79 10.56 6.28 17 6.15s13.51-2.2 18.56-6.19Z" style="fill:#4ade80"/><path d="M612.08 106.85a4.2 4.2 0 0 1 .26.77c.16.59.36 1.33.6 2.24.52 2 1.24 4.85 2.1 8.26.44 1.75.91 3.66 1.42 5.71.24 1 .54 2 .75 3.22a6.55 6.55 0 0 1-.48 3.58 6.69 6.69 0 0 1-6.21 4.07l-8 .05h-4.06a17.4 17.4 0 0 1-4-.24 11.35 11.35 0 0 1-8.28-7c-.42-1.08-.75-2.1-1.11-3.1-.69-2-1.34-3.85-1.93-5.56l-2.75-8.07c-.29-.89-.52-1.62-.71-2.21a3.2 3.2 0 0 1-.2-.78 3.4 3.4 0 0 1 .34.73l.84 2.16 3 8 2 5.53c.76 2 1.32 4.19 2.86 5.94a10.7 10.7 0 0 0 6.1 3.62 17.4 17.4 0 0 0 3.86.21h12.06a6.2 6.2 0 0 0 3.41-1 6 6 0 0 0 2.18-2.61 5.9 5.9 0 0 0 .46-3.22c-.17-1-.48-2.15-.7-3.17-.48-2-.92-4-1.33-5.73-.77-3.44-1.4-6.25-1.87-8.32l-.47-2.27a2.8 2.8 0 0 1-.14-.81" style="fill:#263238"/><path d="M581.72 108.4a2 2 0 1 1-2-2 2 2 0 0 1 2 2" style="fill:#263238"/><path d="M611.7 101.48c.19.84-1 1.63-.94 2.5a3.86 3.86 0 0 1-2.48 3.67 1 1 0 0 0-.34.19 3.68 3.68 0 0 0-1 2.46l-.66 4.48a7.5 7.5 0 0 1-.74 2.7 2.57 2.57 0 0 1-2.26 1.42c-1.36-.09-2.2-1.55-2.4-2.89-.26-1.68.07-3.48-1.08-4.93a2 2 0 0 0-2.24-.75c-2 .75-.8 4-2.74 4.76a1.79 1.79 0 0 1-1.64-.24 4.65 4.65 0 0 1-1.59-3q-.66-2.62-1.31-5.27l21.45-5.11" style="fill:#4ade80"/><circle cx="560.67" cy="165.39" r="11.05" style="fill:#4ade80"/><circle cx="594.9" cy="165.39" r="11.05" style="fill:#4ade80"/><circle cx="629.12" cy="165.39" r="11.05" style="fill:#4ade80"/><circle cx="629.12" cy="165.39" r="11.05" style="opacity:.2"/><path d="M571.72 165.39a22 22 0 0 0-.45-2.67 11 11 0 0 0-4-6 10.82 10.82 0 0 0-10.27-1.47 10.2 10.2 0 0 0-2.73 1.48A10.1 10.1 0 0 0 552 159a10.75 10.75 0 0 0 0 12.74 10.1 10.1 0 0 0 2.28 2.29 10.2 10.2 0 0 0 2.73 1.48 11 11 0 0 0 5.67.49 10.7 10.7 0 0 0 4.57-2 11 11 0 0 0 4-5.95 23 23 0 0 0 .45-2.67 8.5 8.5 0 0 1-.24 2.72 11.16 11.16 0 0 1-8.73 8.35 11.27 11.27 0 0 1-5.93-.46 10.6 10.6 0 0 1-2.86-1.53 10.9 10.9 0 0 1-2.4-2.39 11.23 11.23 0 0 1 0-13.38 10.7 10.7 0 0 1 2.4-2.39 10.3 10.3 0 0 1 2.86-1.53 11.22 11.22 0 0 1 10.65 1.67 11.05 11.05 0 0 1 4 6.22 8.5 8.5 0 0 1 .27 2.73M605.94 165.39a22 22 0 0 0-.45-2.67 11 11 0 0 0-4-6 10.82 10.82 0 0 0-10.24-1.51 10.2 10.2 0 0 0-2.73 1.48 10 10 0 0 0-2.27 2.29 10.75 10.75 0 0 0 0 12.74 10.84 10.84 0 0 0 5 3.77 11 11 0 0 0 5.67.49 10.7 10.7 0 0 0 4.57-2 11 11 0 0 0 4-5.95 23 23 0 0 0 .45-2.67 8.5 8.5 0 0 1-.24 2.72 11.14 11.14 0 0 1-8.72 8.35 11.26 11.26 0 0 1-5.93-.46 10.5 10.5 0 0 1-2.87-1.53 10.6 10.6 0 0 1-2.39-2.39 11.23 11.23 0 0 1 0-13.38 11.26 11.26 0 0 1 5.26-3.92 11.14 11.14 0 0 1 14.65 7.89 8.5 8.5 0 0 1 .24 2.75M640.15 165.39a22 22 0 0 0-.45-2.67 11 11 0 0 0-8.6-8 10.8 10.8 0 0 0-5.67.49 10.2 10.2 0 0 0-2.73 1.48 9.9 9.9 0 0 0-2.28 2.29 10.75 10.75 0 0 0 0 12.74 10.1 10.1 0 0 0 2.28 2.29 10.2 10.2 0 0 0 2.73 1.48 11 11 0 0 0 5.67.49 10.7 10.7 0 0 0 4.57-2 11 11 0 0 0 4-5.95 23 23 0 0 0 .45-2.67 8.5 8.5 0 0 1-.24 2.72 11.16 11.16 0 0 1-8.73 8.35 11.27 11.27 0 0 1-5.93-.46 10.6 10.6 0 0 1-2.86-1.53 10.9 10.9 0 0 1-2.4-2.39 11.23 11.23 0 0 1 0-13.38 10.7 10.7 0 0 1 2.4-2.39 10.3 10.3 0 0 1 2.86-1.53 11.22 11.22 0 0 1 10.65 1.67 11.05 11.05 0 0 1 4 6.22 8.5 8.5 0 0 1 .28 2.75M140.1 193.53c.9 1.34 2.32 2.6 3.93 2.53a12 12 0 0 0 1.73-.4c.54.38.29 2.28-.13 2.79a10.4 10.4 0 0 1-1.28 1.16c1.82 1.13 3.56.74 5.6.13a9.81 9.81 0 0 1-6.31 7.5 3.45 3.45 0 0 1-3.15-.13 4 4 0 0 1-1.24-2.54 43.7 43.7 0 0 1-.75-10.57Z" style="fill:#263238"/><path d="m98.31 208.55-2.79 45.31c-.48 7.71.4 19.12 12.62 19.32 10.61-.63 13.9-10.49 14.34-17.68.21-3.41.39-6.25.43-6.6 0 0 11.6-.38 13.14-11.74.74-5.5 1.35-16.93 1.78-27.29a21.36 21.36 0 0 0-18.75-22.08l-1.1-.13c-11.92-.77-19.23 8.94-19.67 20.89" style="fill:#ffbf9d"/><path d="M122.92 248.88a27.7 27.7 0 0 1-14.28-6.2s2.59 8.76 14.08 9.12Z" style="fill:#ff9a6c"/><path d="M117.75 212.88c-.23.22-1.5-.91-3.41-1s-3.38.72-3.57.46c-.1-.11.16-.52.81-.93a4.8 4.8 0 0 1 2.88-.66 4.57 4.57 0 0 1 2.69 1.13c.55.46.72.9.6 1M117.84 218.48a1.55 1.55 0 0 1-1.68 1.37 1.48 1.48 0 0 1-1.41-1.58 1.54 1.54 0 0 1 1.67-1.37 1.49 1.49 0 0 1 1.42 1.58M121.89 226.42a11.5 11.5 0 0 1 2.9-.17c.46 0 .89 0 1-.32a2.26 2.26 0 0 0-.13-1.36c-.29-1.13-.59-2.32-.91-3.56-1.24-5.07-2.08-9.22-1.87-9.27s1.37 4 2.61 9.09c.3 1.25.58 2.44.85 3.58a2.58 2.58 0 0 1 0 1.78 1.12 1.12 0 0 1-.82.56 3 3 0 0 1-.77 0 12 12 0 0 1-2.86-.33M118.51 206.88c-.25.39-1.71-.15-3.54-.33s-3.38 0-3.53-.44c-.07-.21.27-.55 1-.83a5.6 5.6 0 0 1 2.76-.35 5.75 5.75 0 0 1 2.63.93c.54.42.79.83.68 1.02M135.66 209.68c-.21.34-1.69-.12-3.49-.27s-3.32 0-3.49-.35c-.08-.18.23-.48.88-.72a6.3 6.3 0 0 1 2.69-.31 6.45 6.45 0 0 1 2.63.79c.61.35.88.7.78.86" style="fill:#263238"/><path d="M97.88 216.38c-.19-.11-7.54-3.28-8.25 4.54s7.28 6.91 7.32 6.68.93-11.22.93-11.22" style="fill:#ffbf9d"/><path d="M94.83 224.43s-.15.08-.38.17a1.37 1.37 0 0 1-1-.07c-.8-.38-1.38-1.76-1.29-3.17a4.5 4.5 0 0 1 .56-1.91 1.55 1.55 0 0 1 1.12-.95.69.69 0 0 1 .77.44c.08.23 0 .38.06.4s.18-.12.14-.45a.86.86 0 0 0-.26-.51 1 1 0 0 0-.74-.27 1.94 1.94 0 0 0-1.53 1.08 4.74 4.74 0 0 0-.67 2.14c-.09 1.58.59 3.12 1.69 3.55a1.45 1.45 0 0 0 1.26-.09c.24-.17.29-.34.27-.36" style="fill:#ff9a6c"/><path d="M88.09 203.19c1.77-2.68 2.31-6 3.35-9s2.92-6.15 6-7.08h.07c2.77-1 6.11-.81 8.24 1.18.76-4 4.48-7.09 8.51-7.93s10.36.09 14.09 1.81c2.89 1.33 5.61 3.89 8.9 7.63a39 39 0 0 1 3.76 5l2.92 10.83-3.23 5.45c-.2.37-.4.74-.64 1.11l-2.89 11.37c0-3.22.42-14.1.41-17.32a18 18 0 0 1-12.49-6.53c-1.66-2-2.92-4.54-5.21-5.81-3-1.65-6.61-.74-9.86.21l.15-.11a14.2 14.2 0 0 0-4.58 3 44.6 44.6 0 0 1-2.86 18.76c-.34.9-1.25 2.74-2.17 3-1.79.59-2.17-1.22-3.18-2.23a4.73 4.73 0 0 0-3.16-.94 69.5 69.5 0 0 1-1.75-8.23 7.2 7.2 0 0 1-3.3.06l1.13-2.37a3.8 3.8 0 0 1-1.44.56 1.28 1.28 0 0 1-1.3-.64c-.28-.55.16-1.22.53-1.78" style="fill:#263238"/><path d="M109.27 189.83a10 10 0 0 0-1.19 1 8.1 8.1 0 0 0-1.94 3.71 13.7 13.7 0 0 0-.44 2.88v3.37a30 30 0 0 1-.1 3.75 12.6 12.6 0 0 1-.36 2 4 4 0 0 1-.9 1.87 1.69 1.69 0 0 1-1.63.46 2.46 2.46 0 0 1-1.41-.89 5.8 5.8 0 0 1-1-2.95h.24a9.8 9.8 0 0 1-1.51 2.32 3.36 3.36 0 0 1-2.28 1.1 2.24 2.24 0 0 1-1.17-.26 2 2 0 0 1-1-1.85 1.35 1.35 0 0 1 .41-.87l.11.11a7.4 7.4 0 0 1-2.54 1.72 8 8 0 0 1-.77.26l-.28.05a1.4 1.4 0 0 1 .26-.1c.18-.06.43-.15.76-.29a7.8 7.8 0 0 0 2.46-1.75l.11.11a1.49 1.49 0 0 0-.16 1.7 1.8 1.8 0 0 0 .69.73 2 2 0 0 0 1.06.22 3.16 3.16 0 0 0 2.12-1 9.5 9.5 0 0 0 1.45-2.28l.18-.36.06.4a5.8 5.8 0 0 0 .91 2.83 2.3 2.3 0 0 0 1.26.79 1.44 1.44 0 0 0 1.4-.39 3.9 3.9 0 0 0 .83-1.75 13 13 0 0 0 .35-1.93 31 31 0 0 0 .11-3.71v-3.39a14.7 14.7 0 0 1 .47-2.92 8.1 8.1 0 0 1 2-3.73 4.5 4.5 0 0 1 1.44-.96M144.05 202.68l-.1.07-.29.2c-.13.08-.3.18-.5.28a5 5 0 0 1-.71.33 10.16 10.16 0 0 1-4.93.64 12.94 12.94 0 0 1-6.77-2.88 22.4 22.4 0 0 1-5.58-7.12c-.77-1.42-1.37-2.87-2.06-4.22a15 15 0 0 0-2.38-3.6 7.8 7.8 0 0 0-3.19-2.16 5.5 5.5 0 0 0-1.72-.28 6.4 6.4 0 0 0-1.61.22 6.7 6.7 0 0 0-2.45 1.32 6.6 6.6 0 0 0-1.37 1.61 7.6 7.6 0 0 0-.67 1.68s0 0 0-.12 0-.21.07-.34a6.3 6.3 0 0 1 .5-1.27 6.5 6.5 0 0 1 1.36-1.67 6.6 6.6 0 0 1 2.5-1.39 6.7 6.7 0 0 1 1.66-.25 5.9 5.9 0 0 1 1.79.28 8 8 0 0 1 3.3 2.2 15.4 15.4 0 0 1 2.44 3.65c.69 1.36 1.3 2.81 2.05 4.22a22.7 22.7 0 0 0 5.5 7 12.9 12.9 0 0 0 6.64 2.88 10.4 10.4 0 0 0 4.87-.54c1.1-.42 1.6-.78 1.65-.74" style="fill:#455a64"/><path d="M135.15 214.46c-.24.22-1.5-.91-3.41-1.05s-3.39.72-3.57.46.16-.52.8-.93a4.8 4.8 0 0 1 2.89-.67 4.57 4.57 0 0 1 2.69 1.14c.55.5.72.95.6 1.05M133.37 220a1.54 1.54 0 0 1-1.67 1.36 1.48 1.48 0 0 1-1.42-1.58 1.56 1.56 0 0 1 1.67-1.37 1.49 1.49 0 0 1 1.42 1.59M121.78 232.82c0 .07-.45.2-1.2.11a4.65 4.65 0 0 1-2.61-1.3 4.6 4.6 0 0 1-1.3-2.6c-.09-.75 0-1.2.1-1.2s.1.45.29 1.12a5 5 0 0 0 3.6 3.59c.66.19 1.11.2 1.12.28" style="fill:#263238"/><path d="m184.73 257.71-30.08 26.61-29-23.43-2.19 30.78 18 14.41c7.45 2.91 15.56 4.35 21.48-1l33.32-33.77Z" style="fill:#4ade80"/><path d="M66.86 272.51s.7-11.58 11.06-17.67c1.51-.89 14-6.35 14-6.35l3.72-5.32 22.81 14.54 2.88 2.63 2.34-5.64 2.78 4.23-1.17-.2.32 2.16 1.42 9.35L128 297c0-.28.43 9.41.16 13.89-1 16.88-3.91 59.92-4.93 62.95a5.51 5.51 0 0 1-4.82 3.87L58.8 361c-3.37-.29-6.44-9.45-1.4-12.39Z" style="fill:#4ade80"/><path d="M71.63 280.65S96.47 327 105 331.53s22.21 1.65 22.21 1.65v-3.75Z" style="opacity:.30000000000000004"/><path d="M89.29 260.7c3.44 1.55 35.31 43.43 35.31 43.43l45.11-.37 2.94 21.11s-47.3 6.84-58.33 4.43S71 280 69.06 276.84c-3.13-5-.46-13 4.38-17.23" style="fill:#4ade80"/><path d="M73.44 259.61s-.16.18-.49.5a14 14 0 0 0-1.36 1.52 17.7 17.7 0 0 0-3.39 7 12 12 0 0 0-.07 5.58c.39 2 1.92 3.8 3.25 5.82 2.76 4 6 8.48 9.61 13.39s7.69 10.23 12.24 15.78c2.28 2.78 4.68 5.61 7.25 8.43a81 81 0 0 0 8.41 8.22 16.6 16.6 0 0 0 5.13 3.1l.35.12.38.05.76.11c.52.06 1 .16 1.54.19l3.13.14c4.22.05 8.53-.21 12.91-.5 8.76-.65 17.8-1.63 27-2.79q6.31-.78 12.47-1.65l-.22.29q-1.5-10.84-2.93-21.11l.25.22-45.11.33h-.1l-.07-.08c-10.31-13.54-18.93-24.59-25.07-32.17-3.06-3.79-5.51-6.71-7.25-8.63-.86-1-1.55-1.68-2-2.13a7 7 0 0 0-.78-.63 3.2 3.2 0 0 1 .82.58 28 28 0 0 1 2.1 2.09c1.76 1.9 4.24 4.8 7.34 8.57 6.19 7.54 14.86 18.55 25.22 32.06l-.17-.08 45.11-.42h.22v.22q1.42 10.25 2.94 21.11v.26h-.26c-4.1.59-8.26 1.13-12.48 1.66-9.25 1.16-18.3 2.13-27.08 2.78-4.38.29-8.7.54-13 .49l-3.04-.13c-.53 0-1.05-.13-1.57-.2l-.78-.11h-.39l-.38-.13a16.9 16.9 0 0 1-5.3-3.2 81 81 0 0 1-8.45-8.28c-2.57-2.84-5-5.68-7.24-8.47-4.54-5.57-8.58-10.91-12.21-15.83s-6.81-9.44-9.55-13.45c-.69-1-1.35-2-2-2.91a9.1 9.1 0 0 1-1.3-3 12.4 12.4 0 0 1 .12-5.68 17.5 17.5 0 0 1 3.51-7 14 14 0 0 1 1.4-1.49Z" style="fill:#263238"/><path d="M91.93 248.49C92.15 249 113 263 113 263l5-4.83 2.68 2.16" style="fill:#4ade80"/><path d="M120.7 260.34a4 4 0 0 1-.75-.51l-2-1.53h.2l-5 4.89-.14.13-.16-.1-6.3-4.23c-4.12-2.79-7.82-5.35-10.47-7.24s-4.25-3.14-4.16-3.25l14.92 10.06 6.28 4.26h-.3l5.09-4.77.1-.09.1.09 1.93 1.64c.45.4.68.62.66.65M126.11 264.16a8.3 8.3 0 0 1 .26 1.56c.13 1 .29 2.45.48 4.26.37 3.6.8 8.58 1.11 14.1s.44 10.51.45 14.14v4.28a9.4 9.4 0 0 1-.09 1.57 8 8 0 0 1-.11-1.57c0-1.1-.08-2.54-.13-4.28-.11-3.61-.29-8.61-.6-14.12s-.68-10.49-1-14.09c-.13-1.74-.23-3.17-.32-4.27a11 11 0 0 1-.05-1.58" style="fill:#263238"/><path d="M61.24 348.57a207.6 207.6 0 0 0 41.46-7.33" style="fill:#4ade80"/><path d="M102.7 341.24a8.5 8.5 0 0 1-1.57.54c-1 .32-2.5.74-4.35 1.24-3.69 1-8.83 2.18-14.57 3.2s-11 1.64-14.8 2c-1.9.17-3.44.29-4.51.34a12 12 0 0 1-1.66 0 10 10 0 0 1 1.65-.24l4.49-.49c3.78-.44 9-1.13 14.74-2.14s10.87-2.15 14.57-3l4.39-1.07a10.7 10.7 0 0 1 1.62-.38" style="fill:#263238"/><path d="M120 436.7 91.5 427S72 452.63 66.59 451.34l16.91-55.89 45 13.35Z" style="fill:#455a64"/><path d="M99.14 410.41A2.38 2.38 0 0 0 97 408a2.3 2.3 0 0 0-2.37 2.09 2.52 2.52 0 0 0 2.27 2.49c1.17-.05 2.45-1.29 2.22-2.44M82.33 395.05l4.36 1.29L70.1 450s-1.84 2.17-3.51 1.35Z" style="fill:#e0e0e0"/><path d="M91.51 428c-.27-.09 0-1.49-.46-3.1s-1.4-2.67-1.22-2.89 1.64.66 2.18 2.62-.27 3.45-.5 3.37M87.31 433.08c-.29 0-.39-1.34-1.27-2.62s-2-1.91-1.92-2.18 1.69 0 2.75 1.63.7 3.24.44 3.17M79.28 434.29c0-.27 1.5-.24 2.78.92s1.49 2.61 1.23 2.65-.82-1-1.89-1.91-2.17-1.38-2.12-1.66M98.24 429.45c-.21-.19.54-1.33.9-2.9s.24-2.93.52-3 .9 1.38.45 3.23-1.69 2.87-1.87 2.67" style="fill:#263238"/><path d="M123.44 360.76c1.09-.3 49.32 51.44 50.42 60s-.66 16-6.36 20.82-70.59-11-70.59-11l6.14-27.18-23.46-7.89 21-38.37Z" style="fill:#263238"/><path d="m134.84 372.23 1.55 1.66s-27.65 29-36.13 28.6l-13.57-4.6 45.92-28.18Z" style="opacity:.30000000000000004"/><path d="M102.89 404.14c0 .13 10 3.22 22.48 6.88S148 417.53 148 417.4s-10-3.23-22.49-6.89-22.58-6.51-22.62-6.37" style="fill:#455a64"/><path d="m157.17 413.58-8.48 26.91s24.5 17.65 23.41 22.78l-52.76-14.57 11.5-42.47Z" style="fill:#455a64"/><path d="M133 433.69a2.24 2.24 0 0 0-2.17 2.05 2.16 2.16 0 0 0 2 2.17 2.37 2.37 0 0 0 2.29-2.18c-.08-1.1-1.27-2.27-2.34-2M119 449.8l1.11-4.12L170.76 460s2.07 1.67 1.34 3.25Z" style="fill:#e0e0e0"/><path d="M149.62 440.45c-.08.26-1.4 0-2.9.5s-2.47 1.37-2.68 1.21.59-1.55 2.41-2.1 3.29.17 3.17.39M154.52 444.27c0 .27-1.25.4-2.43 1.24s-1.74 1.94-2 1.85 0-1.58 1.47-2.61 3.02-.75 2.96-.48M155.83 451.76c-.25 0-.25-1.39.8-2.62s2.41-1.46 2.46-1.21-.9.79-1.75 1.81-1.25 2.07-1.51 2.02M150.87 434.11c-.17.2-1.26-.48-2.74-.78s-2.75-.16-2.82-.42 1.27-.87 3-.49 2.74 1.52 2.56 1.69" style="fill:#263238"/><path d="m120.89 436.02 3.59-14.1-2.67-1.24 16.31-44.41 3.12 2.71-12.82 40.68-4.59 16.98z" style="opacity:.30000000000000004"/><path d="M58.8 361s96.42-33.64 98.2-34.3a20 20 0 0 1 2.41-.61 22.93 22.93 0 0 1 18.34 3.91c4.38 3.28 8 8.55 6.85 16.84-2.63 18.41-26.17 81.27-26.17 81.27l-32.56-9.79c-.18-.05-.37-.59-.26-.43.26.43 16.52-51.93 16.11-51.32s-32.86 26.82-46.34 31.63A29.87 29.87 0 0 1 61.25 388c-3.16-4.37-5.83-16.81-2.45-27" style="fill:#263238"/><path d="M58.8 361s-.12.33-.33 1a29 29 0 0 0-.75 3.08 38.9 38.9 0 0 0-.17 12.16 33 33 0 0 0 2.28 8.52 14 14 0 0 0 1.19 2.2c.49.69 1 1.36 1.58 2a27.5 27.5 0 0 0 4 3.77 29.9 29.9 0 0 0 10.78 5.4 28.5 28.5 0 0 0 6.54 1 29 29 0 0 0 7-.5l1.77-.38c.58-.14 1.16-.34 1.75-.52a31 31 0 0 0 3.46-1.32c1.14-.51 2.25-1.12 3.4-1.68l3.36-1.91c4.47-2.66 9-5.68 13.56-8.9s9.24-6.68 14-10.33q3.56-2.73 7.15-5.63l1.79-1.48c.15-.13.3-.23.45-.38l.24-.22.12-.12c-.18 0 .48 0-.39-.1v-.06c-.09.36-.2.74-.31 1.11-.44 1.49-.89 3-1.35 4.51-3.69 12.08-7.64 24.76-11.84 37.89l-1.61 4.93c-.28.82-.55 1.66-.85 2.46 0 .07-.12.25-.08.21.84.35.27-.52-.12.23v.13a2 2 0 0 0 .09.18.66.66 0 0 0 .38.35l.32.09 1.26.38 10.16 3.06 20.79 6.25.25.08.09-.24c1.08-2.92 2.23-6.06 3.39-9.21 5.2-14.32 10.14-28.35 14.56-42 2.19-6.84 4.31-13.58 6.06-20.27.46-1.67.81-3.35 1.22-5s.66-3.35 1-5a17.13 17.13 0 0 0-7.68-17.34 22.4 22.4 0 0 0-8.83-3.61 23.9 23.9 0 0 0-9.27.19l-2.23.57-2.12.74-4.2 1.47-30.84 10.8c-18.83 6.61-34.07 11.95-44.61 15.66L63 359.43l-3.14 1.12-1.05.4 1.09-.36 3.18-1.08 12.17-4.19 44.67-15.49 30.82-10.71 4.18-1.45 2.13-.74 2.16-.55a23.5 23.5 0 0 1 9.08-.17 21.8 21.8 0 0 1 8.64 3.54 16.64 16.64 0 0 1 7.44 16.87c-.29 1.65-.56 3.32-1 5s-.76 3.33-1.22 5c-1.76 6.67-3.87 13.4-6.07 20.23-4.42 13.67-9.36 27.69-14.56 42l-3.38 9.2.33-.16-20.79-6.25-10.17-3.06-1.26-.38-.31-.09s-.1.22 0 0l-.06-.09a.4.4 0 0 1 0-.11c-.07 0 .11-.06-.14 0 0 0-.85.26.1.21a1.6 1.6 0 0 0 .19-.38c.31-.84.58-1.66.86-2.49q.81-2.48 1.61-4.94c4.2-13.14 8.13-25.82 11.81-37.91.46-1.51.9-3 1.35-4.51.11-.38.22-.74.31-1.14v-.2c-.86-.11-.3 0-.49 0l-.09.09-.2.17c-.12.12-.29.25-.43.37L139 368.6q-3.57 2.89-7.13 5.63-7.09 5.47-14 10.34c-4.58 3.23-9.06 6.25-13.51 8.91l-3.36 1.91c-1.13.56-2.23 1.17-3.36 1.67a31 31 0 0 1-3.42 1.32c-.58.17-1.15.38-1.73.52l-1.74.38a28.7 28.7 0 0 1-6.87.51 29 29 0 0 1-6.48-1 29.9 29.9 0 0 1-10.68-5.31 28 28 0 0 1-3.94-3.71 44 44 0 0 1-1.57-2 12.8 12.8 0 0 1-1.17-2.14 32.5 32.5 0 0 1-2.31-8.45 39.5 39.5 0 0 1 .07-12.11c.26-1.36.48-2.4.69-3.08s.31-.99.31-.99" style="fill:#455a64"/><path d="M156.59 352.19a12.8 12.8 0 0 0-2.68 1.5 40.4 40.4 0 0 0-5.82 4.61 36.4 36.4 0 0 0-4.84 5.64 23 23 0 0 0-1.19 1.91 2.5 2.5 0 0 0-.34.75 29 29 0 0 0 1.83-2.45 47 47 0 0 1 4.9-5.47 56 56 0 0 1 5.67-4.69 25 25 0 0 0 2.47-1.8M145.48 348.56a11.7 11.7 0 0 0-1.15 2.46 44.4 44.4 0 0 0-1.89 6.27 45 45 0 0 0-.94 6.49 11.8 11.8 0 0 0 0 2.71 18 18 0 0 0 .38-2.67c.2-1.66.54-3.93 1.09-6.41s1.21-4.68 1.72-6.26a19 19 0 0 0 .79-2.59M185.53 299.43l12.34-24.93a5 5 0 0 1 4.47-2.77h31a1.52 1.52 0 0 1 1.34 2.23l-21 38.85a3.39 3.39 0 0 1-3 1.76h-32.11Z" style="fill:#455a64"/><path d="M234.48 274.14a3 3 0 0 1-.62.05h-8.3L204 274a6.2 6.2 0 0 0-2.87.68 5.4 5.4 0 0 0-1.9 2.09c-.9 1.7-1.66 3.48-2.44 5.1-1.54 3.26-2.93 6.2-4.12 8.7l-2.81 5.84-.8 1.57a2 2 0 0 1-.31.53 2.4 2.4 0 0 1 .25-.51l.69-1.62c.66-1.47 1.56-3.47 2.65-5.92l4-8.74c.78-1.64 1.5-3.37 2.43-5.16a5.9 5.9 0 0 1 2.11-2.3 6.65 6.65 0 0 1 3.13-.77c8.44.05 16 .24 21.55.35l6.53.18 1.77.08a2.7 2.7 0 0 1 .62.04" style="fill:#263238"/><path d="M215.38 279.6a1 1 0 0 1 .46 1.54 1.47 1.47 0 0 1-1.64.62 1.14 1.14 0 0 1-.85-.82 1.43 1.43 0 0 1 1-1.42 2.3 2.3 0 0 1 1.03.08" style="fill:#fff"/><path d="m166.58 309 2.14-2.18s3.14-4.53 4.42-5.94 9-6.37 9-6.37 3.71-5 4.28-5 2.38.32 1.89 2.64a35 35 0 0 1-2 6.7l16.46.35a3.54 3.54 0 0 1 2.68 1.28c.43.54.61 1.14-.16 1.52-1.72.85-8.71 2.55-8.71 2.55l3.12-.8s.67 3-1.3 4.37a11.2 11.2 0 0 0-2.1 1.66s-.1 2.81-1 3.94-10.12 5.86-10.12 5.86-5.93 1.74-8.92 1.59-6.08 1.55-6.42 1.64-3.26-13.81-3.26-13.81" style="fill:#ffbf9d"/><path d="M187.85 299a35 35 0 0 1-4.62.51c-2.54.28-4.65.41-4.66.23a20 20 0 0 1 4.6-.8 13.2 13.2 0 0 1 4.68.06M185.66 306.21c-.06-.17 3-1 6.72-1.42 1.88-.23 3.58-.4 4.81-.54a9 9 0 0 1 2-.15 5.7 5.7 0 0 1-1.94.56c-1.23.24-2.93.47-4.81.71-3.75.42-6.75.97-6.78.84M185.66 311.55c0-.17 2.39-.24 5.29-.74s5.19-1.21 5.24-1.05a19.75 19.75 0 0 1-10.53 1.79M186.65 317.53c-.16 0-.4-.61-.53-1.43s-.12-1.5 0-1.53.39.62.53 1.44.16 1.5 0 1.52M185.18 310.37c-.17 0-.26-.54-.54-1.1s-.63-1-.54-1.1.71.12 1.07.84.16 1.39.01 1.36M183.3 303.2c-.17 0-.33-.33-.53-.71s-.37-.73-.26-.85.53.1.78.59.16.96.01.97" style="fill:#ff9a6c"/><path d="M188.84 257.76s.36-4.68 2.79-7.66c6.36-7.82 4.24-14.79 4.24-14.79 2.21-2.44 5.87.47 6.58 6 1.49 11.57-.49 24.6-.61 25.08s-6.74 3.42-6.74 3.42l-8.79-10.27Z" style="fill:#ffbf9d"/><rect width="165.56" height="80.77" x="198.33" y="187.61" rx="8.65" style="fill:#fff"/><path d="M355.24 268.39s.42 0 1.23-.13a8.3 8.3 0 0 0 3.34-1.25 8.6 8.6 0 0 0 3.54-4.51 9.9 9.9 0 0 0 .45-3.68v-4.27c0-12.1-.05-29.59-.08-51.2v-6.19a14 14 0 0 0-.09-2.08 8.47 8.47 0 0 0-4.86-6.5 9.3 9.3 0 0 0-4.27-.76H206.98a8.46 8.46 0 0 0-5.49 2 8.26 8.26 0 0 0-2.79 5.18 21 21 0 0 0-.11 3v61.29a8.67 8.67 0 0 0 1.41 5.1 8.44 8.44 0 0 0 4.1 3.22c1.65.68 3.45.5 5.24.53l75.94.05 51.2.09h18.77-4.85l-13.92.05-51.2.08-75.94.06h-2.69a8.4 8.4 0 0 1-2.72-.53 9 9 0 0 1-4.34-3.41 9.1 9.1 0 0 1-1.49-5.37V198a25 25 0 0 1 .11-3.08 8.85 8.85 0 0 1 3-5.41 9 9 0 0 1 5.83-2.17h147.5a9.6 9.6 0 0 1 4.43.81A8.84 8.84 0 0 1 364 195a14 14 0 0 1 .09 2.13v6.19c0 21.61-.07 39.1-.09 51.2v4.27a10.2 10.2 0 0 1-.48 3.73 8.7 8.7 0 0 1-3.63 4.55 8.45 8.45 0 0 1-3.4 1.22 8 8 0 0 1-.92.07Z" style="fill:#263238"/><path d="M238.51 225.39v10.66l25.1 10.76.22-10.2-14.03-6.26 14.03-5.98v-9.88zM323.71 236.76v-10.65l-25.32-10.77-.21 10.2 14.15 6.26-14.15 5.99v9.88zM282.57 205.69c0 .27-14.74 50-14.32 49.92s11 0 11 0l14.54-49.91Z" style="fill:#ebebeb"/><path d="M215.55 198.33a3.5 3.5 0 1 1-3.49-3.28 3.38 3.38 0 0 1 3.49 3.28M225.13 198.33a3.49 3.49 0 1 1-3.49-3.28 3.38 3.38 0 0 1 3.49 3.28M234.71 198.33a3.49 3.49 0 1 1-3.48-3.28 3.38 3.38 0 0 1 3.48 3.28" style="fill:#e0e0e0"/></svg>