<svg xmlns="http://www.w3.org/2000/svg" viewBox="0 0 500 500"><ellipse cx="250" cy="358.49" rx="222.5" ry="128.46" style="fill:#f5f5f5"/><ellipse cx="95.58" cy="369.76" rx="24.63" ry="14.22" style="fill:#e6e6e6"/><path d="M285.26 293.53 123.38 387a4 4 0 0 0 0 7l95.14 54.93a15.73 15.73 0 0 0 15.73 0l161.88-93.46a4 4 0 0 0 0-7L301 293.53a15.73 15.73 0 0 0-15.74 0" style="fill:#e6e6e6"/><path d="m236.65 294.44-64.8 37.42a8.55 8.55 0 0 0 0 14.82l32.63 18.84a14.23 14.23 0 0 0 14.2 0l64.81-37.42a8.56 8.56 0 0 0 0-14.82l-32.64-18.84a14.18 14.18 0 0 0-14.2 0" style="fill:#e6e6e6"/><path d="M96.88 333s-15.22-14.87-6.56-39.77c4.85-13.95 20.94-24.2 30.1-25.16a42.9 42.9 0 0 0-7.16 12.07l-11.54 7.67 10.61-3.32-2.26 9.08s-9.86 6-11.32 7.26l10.63-2.83s-.82 25.72-12.5 35" style="fill:#4ade80"/><path d="M96.88 333s-15.22-14.87-6.56-39.77c4.85-13.95 20.94-24.2 30.1-25.16a42.9 42.9 0 0 0-7.16 12.07l-11.54 7.67 10.61-3.32-2.26 9.08s-9.86 6-11.32 7.26l10.63-2.83s-.82 25.72-12.5 35" style="opacity:.4"/><path d="M96.88 333s-7.88-31.11 3.78-49.25c0-.04-13.66 15.97-3.78 49.25" style="fill:#fff"/><path d="m114.3 337.17-18.63-.24h-.19l-18.62.24s-.21 22.94 6.86 32.27c2 2.49 6.53 4.23 11.86 4.23s9.92-1.75 11.87-4.24c7.05-9.34 6.85-32.26 6.85-32.26" style="fill:#37474f"/><ellipse cx="95.58" cy="337.17" rx="18.72" ry="10.05" style="fill:#455a64"/><path d="M95.58 334.5c6.44 0 11.89 2.07 13.81 4.93a4 4 0 0 0 .75-2.26c0-4-6.52-7.19-14.56-7.19S81 333.2 81 337.17a4.1 4.1 0 0 0 .74 2.26c1.94-2.86 7.4-4.93 13.84-4.93" style="fill:#263238"/><ellipse cx="95.58" cy="339.43" rx="13.81" ry="4.93" style="fill:#e0e0e0"/><path d="M95.81 340.67s-7.22-.28-13.4-9.86c-2.56-3.95-3.79-6-3.79-6l10-.75-11.26-2.81-5.32-8.14 9.35-.7s-7-2.44-11.93-2.47c0 0-8.63-15.23-11.15-17.4a48.9 48.9 0 0 1 34.07 16.92c14.22 16.73 5.53 31.64 3.43 31.21" style="fill:#4ade80"/><path d="M95.81 340.67s4.51-27.18-24.28-43.52c0 0 29.88 14.35 24.28 43.52" style="fill:#fff"/><path d="M95.81 340.67s6.53.42 13-7.64c2.67-3.32 4-5.08 4-5.08l-9-1.62 10.42-1.48 5.57-6.85-8.37-1.51s6.51-1.54 11-1.1c0 0 9.22-12.94 11.7-14.66a44.36 44.36 0 0 0-32.33 12.07c-14.37 13.79-7.93 28.06-5.99 27.87" style="fill:#4ade80"/><path d="M95.81 340.67s6.53.42 13-7.64c2.67-3.32 4-5.08 4-5.08l-9-1.62 10.42-1.48 5.57-6.85-8.37-1.51s6.51-1.54 11-1.1c0 0 9.22-12.94 11.7-14.66a44.36 44.36 0 0 0-32.33 12.07c-14.37 13.79-7.93 28.06-5.99 27.87" style="opacity:.2"/><path d="M95.81 340.67s-1.52-24.94 26-37c0 .02-28.31 10.16-26 37" style="fill:#fff"/><path d="M128.91 119.4v49.68l-43.03 24.84v-49.68z" style="fill:#fafafa"/><path d="M124.25 122.09v44.3l-38.37 22.15v-44.3zm2.33-4-43 24.84v49.68l2.33 1.35 43-24.84V119.4l-2.33-1.35Z" style="fill:#e0e0e0"/><path d="M126.58 123.43v44.3l-38.37 22.15v-44.3zm2.33-4-43 24.84v49.68l43-24.84V119.4Z" style="fill:#ebebeb"/><path d="M122.59 157.71 90.04 176.5l9.62-25.01 6.66 7.9 6.81-9.69zM111.3 142.1a6.57 6.57 0 0 1-3 5.15c-1.64.94-3 .18-3-1.72a6.57 6.57 0 0 1 3-5.14c1.7-.95 3-.18 3 1.71" style="fill:#e0e0e0"/><path d="M143.26 57.55v39.57l-34.27 19.79V77.33z" style="fill:#fafafa"/><path d="M139.55 59.69V95L109 112.63v-35.3l30.56-17.64m1.86-3.22-34.29 19.79v39.58l1.86 1.07 34.27-19.79V57.54l-1.85-1.07Z" style="fill:#e0e0e0"/><path d="M141.41 60.76v35.29l-30.57 17.65V78.4zm1.85-3.22L109 77.33v39.58l34.27-19.79V57.54Z" style="fill:#ebebeb"/><path d="m138.23 88.07-25.93 14.97 7.66-19.93 5.31 6.3 5.42-7.73zM129.24 75.63a5.22 5.22 0 0 1-2.37 4.1c-1.31.76-2.36.14-2.36-1.36a5.21 5.21 0 0 1 2.36-4.1c1.31-.76 2.37-.14 2.37 1.36" style="fill:#e0e0e0"/><path d="m216.15 286.33 13.91 84.89a2.65 2.65 0 0 0 2.62 2.22 2.65 2.65 0 0 0 2.63-2.94l-9.76-87.58ZM264.17 257.78l13.92 84.89a2.64 2.64 0 0 0 2.61 2.22 2.65 2.65 0 0 0 2.63-2.95l-9.76-87.57ZM194.8 266.48l-13.73 73.15a2.21 2.21 0 0 1-2.19 1.82 2.24 2.24 0 0 1-2.21-2.56l10.14-67.8Z" style="fill:#263238"/><path d="m243.36 239.19-13.65 72.7a2.21 2.21 0 0 1-2.19 1.82 2.24 2.24 0 0 1-2.21-2.55l10.06-67.37Z" style="fill:#263238"/><path d="M239.4 233.65a19.46 19.46 0 0 1-11.49-15.87c-2.21-22.28-10.06-68.18-36.64-52.9-32.82 18.86-21.07 73.63-16.3 91.19a23.7 23.7 0 0 0 6 10.49c5.93 6 18.2 16.26 39.08 25a12.26 12.26 0 0 0 8.08.48c10.37-2.95 37.46-12 51-29.3a4.72 4.72 0 0 0-.78-6.6c-5.47-4.34-17.84-13.07-38.95-22.49" style="fill:#4ade80"/><path d="M239.4 233.65a19.46 19.46 0 0 1-11.49-15.87c-2.21-22.28-10.06-68.18-36.64-52.9-32.82 18.86-21.07 73.63-16.3 91.19a23.7 23.7 0 0 0 6 10.49c5.93 6 18.2 16.26 39.08 25a12.26 12.26 0 0 0 8.08.48c10.37-2.95 37.46-12 51-29.3a4.72 4.72 0 0 0-.78-6.6c-5.47-4.34-17.84-13.07-38.95-22.49" style="opacity:.5"/><path d="M280.11 259.61a4.68 4.68 0 0 1-1 3.14c-.72.93-1.49 1.82-2.28 2.7-.44.48-.88.95-1.34 1.41-.45.46-.91.91-1.38 1.36l-1.42 1.32c-.49.43-1 .86-1.49 1.28-7.67 6.43-17 11.33-25.27 14.86l-1.54.65-.16.06-1.42.58-.25.09-1.32.52-.3.12-1.23.46-.36.13-1.14.42-.41.15-1.05.37-.43.15-1 .33-.47.16-.88.29-.5.17-.79.25-.54.17-.68.22-.58.17-.57.18-.71.21-.36.1c-.34.11-.68.2-1 .29a12.26 12.26 0 0 1-8.08-.48c-20.88-8.75-33.15-19-39.08-25a23.7 23.7 0 0 1-6-10.49c-4.77-17.56-16.52-72.33 16.3-91.19q.87-.49 1.71-.9l.37-.18c.56-.26 1.1-.5 1.64-.71l.16-.06c.51-.19 1-.36 1.52-.5l.23-.07c.54-.15 1.07-.27 1.59-.37h.14a14.7 14.7 0 0 1 3.14-.22h.06a13.2 13.2 0 0 1 3 .46c-5.24-2.31-11.64-2.21-18 1.44-32.82 18.86-21.07 73.63-16.3 91.19l.81 3a28.54 28.54 0 0 0 10.24 15.31l8.52 6.51A133.9 133.9 0 0 0 220 296.82a12.28 12.28 0 0 0 8.11.5c10.36-2.95 37.47-12 51-29.3a4.67 4.67 0 0 0 1-2.57v-5.85Z" style="fill:#4ade80"/><path d="M280.11 259.61a4.68 4.68 0 0 1-1 3.14c-.72.93-1.49 1.82-2.28 2.7-.44.48-.88.95-1.34 1.41-.45.46-.91.91-1.38 1.36l-1.42 1.32c-.49.43-1 .86-1.49 1.28-7.67 6.43-17 11.33-25.27 14.86l-1.54.65-.16.06-1.42.58-.25.09-1.32.52-.3.12-1.23.46-.36.13-1.14.42-.41.15-1.05.37-.43.15-1 .33-.47.16-.88.29-.5.17-.79.25-.54.17-.68.22-.58.17-.57.18-.71.21-.36.1c-.34.11-.68.2-1 .29a12.26 12.26 0 0 1-8.08-.48c-20.88-8.75-33.15-19-39.08-25a23.7 23.7 0 0 1-6-10.49c-4.77-17.56-16.52-72.33 16.3-91.19q.87-.49 1.71-.9l.37-.18c.56-.26 1.1-.5 1.64-.71l.16-.06c.51-.19 1-.36 1.52-.5l.23-.07c.54-.15 1.07-.27 1.59-.37h.14a14.7 14.7 0 0 1 3.14-.22h.06a13.2 13.2 0 0 1 3 .46c-5.24-2.31-11.64-2.21-18 1.44-32.82 18.86-21.07 73.63-16.3 91.19l.81 3a28.54 28.54 0 0 0 10.24 15.31l8.52 6.51A133.9 133.9 0 0 0 220 296.82a12.28 12.28 0 0 0 8.11.5c10.36-2.95 37.47-12 51-29.3a4.67 4.67 0 0 0 1-2.57v-5.85Z" style="opacity:.6000000000000001"/><path d="M298.21 322.28c-2.24-14.29-5.11-37.13-6.75-50.63q-.16-1.33-.45-2.64a28 28 0 0 0-13.21-17.89l-33.66-20-22.85-12s-6.08 17.62 1 28.4c5.88 9 31.84 20.08 39.56 23.83s7.88 4.76 7.72 9.77-.17 11.39 9.31 31.37c2.73 5.74 4.63 10 5.95 13.33a21 21 0 0 0 13.38-3.54" style="fill:#4ade80"/><path d="M298.21 322.28c-2.24-14.29-5.11-37.13-6.75-50.63a28.4 28.4 0 0 0-.76-3.93 27.93 27.93 0 0 0-12.85-16.57l-33.71-20.07-22.85-12s-6.08 17.62 1 28.4c5.88 9 31.84 20.08 39.56 23.83s7.88 4.76 7.72 9.77-.17 11.39 9.31 31.37c2.73 5.74 4.63 10 5.95 13.33a21 21 0 0 0 13.38-3.5" style="opacity:.7000000000000001"/><path d="M287.8 337.41a3.4 3.4 0 0 0 .41 1.7 23.7 23.7 0 0 0 5.06 6c4.54 4.09 19.57 20.1 24.85 10.16 0 0-15.53-14.87-17.58-21a102 102 0 0 1-2.33-12 21 21 0 0 1-13.4 3.48c2.91 7.25 3.04 9.6 2.99 11.66" style="fill:#ffa8a7"/><path d="m304 336.43-.43-1.29a2 2 0 0 0-2.42-1.24l-6.29 1.94a1.93 1.93 0 0 0-1.36 1.85v.63a1.13 1.13 0 0 1-1.13 1.12 5.73 5.73 0 0 1-3.65-1.31l-.88-.72v-2.2a3.87 3.87 0 0 0-1.75 3.44c.08 1.49.15 3.31.09 4-.1 1.32-1.33 6.82.14 8.45s4.77 1.82 8.85 1.38 8.54 3.57 12.32 5.06 19.44 4.69 19.4-5.32c0-2.55-2.53-3.59-5-4.49s-11.41-4.05-13.7-5.94a21 21 0 0 1-2.55-2.52 8.4 8.4 0 0 1-1.64-2.84" style="fill:#455a64"/><path d="M307.45 357.57c-3.78-1.49-8.24-5.5-12.32-5.06s-7.38.25-8.85-1.38a3.9 3.9 0 0 1-.7-2.31c-.07 1.54.05 3 .7 3.74 1.47 1.63 4.77 1.82 8.85 1.38s8.54 3.58 12.32 5.06 19.44 4.69 19.4-5.32a3 3 0 0 0-.06-.43c-.98 8.75-15.69 5.75-19.34 4.32" style="fill:#263238"/><path d="M267.64 339.62c-2.25-14.28-5.11-37.12-6.76-50.63a28.42 28.42 0 0 0-9.82-18.24l-40.39-34.34-21.59-.41s-4.45 18 2.61 28.77c5.89 9 31.84 20.09 39.56 23.83s7.88 4.77 7.72 9.77-.17 11.39 9.32 31.37c2.72 5.75 4.62 10 5.94 13.33a21.06 21.06 0 0 0 13.41-3.45" style="fill:#4ade80"/><path d="M267.64 339.62c-2.25-14.28-5.11-37.12-6.76-50.63a28.42 28.42 0 0 0-9.82-18.24l-40.39-34.34-21.59-.41s-4.45 18 2.61 28.77c5.89 9 31.84 20.09 39.56 23.83s7.88 4.77 7.72 9.77-.17 11.39 9.32 31.37c2.72 5.75 4.62 10 5.94 13.33a21.06 21.06 0 0 0 13.41-3.45" style="opacity:.7000000000000001"/><path d="M257.21 353.46c0 .6-.41 2.37.42 3 1.06.79 2.07 3.32 5.07 6 4.53 4.09 9.32-4.72 7.26-10.83a103 103 0 0 1-2.32-12 21.06 21.06 0 0 1-13.41 3.48c2.92 7.22 3.04 8.3 2.98 10.35M230.52 161.52a13.22 13.22 0 0 1 14.61 8.86 57.5 57.5 0 0 1 2.73 13.22c1.17 13.85 1.49 20.77 1.49 20.77l13.91 6.31s-7.51.36-7 11l-17.33-4.37Z" style="fill:#ffa8a7"/><path d="M249.86 196c-2.05-15-2.86-22.85-4.62-26.57a13.49 13.49 0 0 0-14.72-7.91l5.24 41.2.67-.06a21.78 21.78 0 0 0 12.47-5.52Z" style="fill:#4ade80"/><path d="M249.86 196c-2.05-15-2.86-22.85-4.62-26.57a13.49 13.49 0 0 0-14.72-7.91l5.24 41.2.67-.06a21.78 21.78 0 0 0 12.47-5.52Z" style="opacity:.2"/><path d="M249.35 204.37a9.6 9.6 0 0 0-4.11 2.53s1.68-3.19 4-4.18Z" style="fill:#f28f8f"/><path d="m197.1 173.67 15.56-7.54 12.82-4.43s10.28-3.27 12.9 10.42c2.17 11.25 2.45 54 2.45 54l-.23 4.67s-5.93 16.62-27.12 18-25.32-7.56-25.32-7.56-2.16-56.57 8.94-67.56" style="fill:#4ade80"/><path d="M246.13 128s4.81 12.33-1.83 17.76-4.3-16.43-4.3-16.43Z" style="fill:#263238"/><path d="M287.81 198.49 140 283.83v108.34a1.86 1.86 0 0 0 1.12 1.67 6 6 0 0 0 5.46 0 1.86 1.86 0 0 0 1.11-1.67v-85.4L227.83 353v90.73a1.86 1.86 0 0 0 1.12 1.66 6 6 0 0 0 5.46 0 1.86 1.86 0 0 0 1.12-1.66V353l136.23-78.65v86a1.85 1.85 0 0 0 1.14 1.65 6 6 0 0 0 5.46 0 1.85 1.85 0 0 0 1.12-1.66V251.43Z" style="fill:#455a64"/><path d="M234.41 445.41a6 6 0 0 1-5.46 0c-1.51-.87-1.51-2.28 0-3.15a6 6 0 0 1 5.46 0c1.51.87 1.51 2.28 0 3.15" style="fill:#455a64"/><path d="M227.83 350.79h7.72v92.96h-7.72z" style="fill:#37474f"/><ellipse cx="143.87" cy="392.27" rx="3.86" ry="2.23" style="fill:#455a64"/><path d="M140.01 299.23h7.72v92.96h-7.72z" style="fill:#263238"/><path d="M378.36 362a6 6 0 0 1-5.46 0c-1.51-.87-1.51-2.28 0-3.15a6 6 0 0 1 5.46 0c1.51.88 1.51 2.29 0 3.15" style="fill:#455a64"/><path d="M371.78 267.39h7.72v92.96h-7.72z" style="fill:#37474f"/><path d="M284 291.66a5.42 5.42 0 0 1-4.9 0c-1.35-.78-1.35-2 0-2.82a5.36 5.36 0 0 1 4.9 0c1.31.78 1.31 2.04 0 2.82" style="fill:#455a64"/><path d="M278.05 212.6h6.93v77.58h-6.93z" style="fill:#455a64"/><path d="M140 283.83v18.49l91.69 52.94v-18.5z" style="fill:#263238"/><path d="m379.5 251.43-147.81 85.33v18.5l147.81-85.34z" style="fill:#37474f"/><path d="M287.81 198.49 140 283.83l91.69 52.93 147.81-85.33z" style="fill:#455a64"/><path d="m213.66 256.08 33.62 19.41 55.89-32.33-33.61-19.8z" style="fill:#ebebeb"/><path d="m243.66 250.55 12.61-7.28-7.9-4.56-12.61 7.28zM248.71 270.64l-16.99-10 33.2-20.1z" style="fill:#e0e0e0"/><path d="m258.22 208.28 13.45 6.31a118 118 0 0 1 11.87 3.67s9.36 3.82 9.79 6.33-7 8.56-13.57 5.62a20.7 20.7 0 0 0-5.46-2c-1.75-.19-7-1-10.75-4.61l-15.69-4.08s-.78-9.68 10.36-11.24" style="fill:#ffa8a7"/><path d="M266.93 227c1.55 1.67 6 5.88 7 7.1s3.26-1.91-.75-6.58a37.6 37.6 0 0 1-9.69-5.27 38 38 0 0 0 3.44 4.75M212.66 146.81h15.96v19.32h-15.96z" style="fill:#ffa8a7"/><path d="M228.63 166.13A25.7 25.7 0 0 1 214 152.18v-5.37h14.67Z" style="fill:#f28f8f"/><path d="M234 121.3s14.52 1.75 11.19 26.56c-1.54 11.47-4.61 17.27-13.45 16.29-10-1.12-23.87-8.9-21.72-28.56S234 121.3 234 121.3" style="fill:#ffa8a7"/><path d="m234.81 143.42-.52 8.57 5.11-1.23z" style="fill:#f28f8f"/><path d="M227.21 142.65a1.75 1.75 0 1 0 1.85-1.64 1.75 1.75 0 0 0-1.85 1.64M238.76 142.14a1.75 1.75 0 1 0 1.86-1.64 1.75 1.75 0 0 0-1.86 1.64M242.86 138.74l-3.29-2.24s1.39-1.28 2.65-.38a2.39 2.39 0 0 1 .64 2.62M228.42 138.35l-3.55 1.78s-.44-1.84.95-2.49a2.38 2.38 0 0 1 2.6.71" style="fill:#263238"/><path d="M234.54 155.47a8.93 8.93 0 0 1-5.53-1.85s-.56 2.94 1.88 3.65 3.65-1.8 3.65-1.8" style="fill:#f28f8f"/><path d="M212.49 143.22s2.23 4.65 3.61 4.49 0-17.81 2.86-17.92 16.36 6.59 28.29-2.06c4.59-3.32 5.5-11.8 2.75-11s-6.46 3.21-11.47 2.87-22.55-8.48-26.9 3c0 0-9.7-.79-6.06 18.47.91 4.79 3.77 16.65 7.09 17.82Z" style="fill:#263238"/><path d="M213.28 147.46a9.8 9.8 0 0 0-.79-4.24 4.5 4.5 0 0 0-3.89-3c-4.48-.12-5.09 4.2-5 5.73.16 4 3.43 8.4 9.51 8.57ZM214.66 233.91 226.1 243a38.4 38.4 0 0 1 5.8 1c2.19.65 7.93 2.76 9.45 3.09s-.44 3-4.42 2c0 0 8.34 5.71 8.23 8.25s-8.67 6.88-14.45 2.62a21.4 21.4 0 0 0-4.91-3.08c-1.68-.55-6.61-2.46-9.54-6.78l-10-5.21s-2.82-11.81 8.4-10.98" style="fill:#ffa8a7"/><path d="M202.18 171.21s6.67 5.17 2.57 21.24-6.29 29.92-6.29 29.92l16.2 11.54a14.28 14.28 0 0 0-8.4 11s-25.54-10-26.06-16.49 5.33-34.35 6.22-39.48 5.43-15.3 15.76-17.73" style="fill:#ffa8a7"/><path d="M198.46 222.37a15.1 15.1 0 0 0-6.11.06 12.8 12.8 0 0 1 6.25-1.55Z" style="fill:#f28f8f"/><path d="m311 206.13-5.85 38.25a.1.1 0 0 1 0 .07L247 278.12a.09.09 0 0 1-.13-.09l5.67-37.1a5.5 5.5 0 0 1 2.56-3.86l53.26-32.66a1.72 1.72 0 0 1 2.64 1.72" style="fill:#fafafa"/><path d="m247 278.12-31-18a4.72 4.72 0 0 1-2.35-4.08l33.62 19.41ZM277.37 243c0 2.74 1.92 3.84 4.28 2.48a9.47 9.47 0 0 0 4.29-7.42c0-2.74-1.92-3.84-4.29-2.48a9.49 9.49 0 0 0-4.28 7.42" style="fill:#e0e0e0"/><path d="M213.17 128.21s-2.64-3.9-1-5.16 2.83 2.75 1 5.16" style="fill:#263238"/><path d="M213.61 129s-4.66-.58-4.55-2.62 3.94-.32 4.55 2.62" style="fill:#263238"/><path d="M212.66 166.13s3.43 9 11.33 7.88 4.64-7.88 4.64-7.88Z" style="fill:#ffa8a7"/><path d="M202.18 171.21s5.2 2.49 4.4 12.95-4.93 31.54-4.93 31.54-18.61 7.54-20.39-3.09c-.45-2.75 4.24-28.18 8.25-33.56a18.94 18.94 0 0 1 12.67-7.84" style="fill:#4ade80"/><path d="M202.18 171.21s5.2 2.49 4.4 12.95-4.93 31.54-4.93 31.54-18.61 7.54-20.39-3.09c-.45-2.75 4.24-28.18 8.25-33.56a18.94 18.94 0 0 1 12.67-7.84" style="opacity:.2"/><path d="M257.63 354a5.05 5.05 0 0 0 3 2.12c1.13.18-1.15-2.75 1.57-3.93s8.95-2.79 9.51-.45l.69 2.92a17.3 17.3 0 0 0 3.84 7.45 36.4 36.4 0 0 0 6.16 5.89c3.56 2.29 9.41 7.84 1.9 12.57s-16.73.73-18.54-4.64-3.72-6.93-4.68-7.82a10.25 10.25 0 0 1-4.06-5.92 56 56 0 0 1-1-7.2 2.71 2.71 0 0 1 1.24-2.49Z" style="fill:#455a64"/><path d="M284.34 380.55c-7.51 4.72-16.73.73-18.54-4.64s-3.72-6.93-4.68-7.82a10.8 10.8 0 0 1-3.75-4.87v.44c.29 4.65 3.14 5.74 4.1 6.64s2.54 2.36 4.35 7.74 11.33 8.72 18.83 4c3.65-2.29 4.14-4.78 3.28-7 .18 1.81-.74 3.72-3.59 5.51" style="fill:#263238"/><path d="M248.26 309.16 224.34 323l-30.2-17.44 24-13.84a2.1 2.1 0 0 1 2.06 0l28.09 16.22a.71.71 0 0 1-.03 1.22" style="fill:#4ade80"/><path d="M248.26 309.16 224.34 323l-30.2-17.44 24-13.84a2.1 2.1 0 0 1 2.06 0l28.09 16.22a.71.71 0 0 1-.03 1.22" style="opacity:.7000000000000001"/><path d="m246.6 308.66-22.26 12.85-28.11-16.22 22.31-12.88a1.87 1.87 0 0 1 1.91 0l26.15 15.09a.67.67 0 0 1 0 1.16" style="fill:#fff"/><path d="M224.34 321.51V319l22.6-13.04v2.13z" style="fill:#fff"/><path d="M224.34 321.51V319l-28.11-16.22v2.51z" style="fill:#e0e0e0"/><path d="M248.26 305.19 224.34 319l-30.2-17.43 24-13.84a2.1 2.1 0 0 1 2.06 0L248.26 304a.71.71 0 0 1 0 1.19" style="fill:#4ade80"/><path d="M248.26 305.19 224.34 319l-30.2-17.43 24-13.84a2.1 2.1 0 0 1 2.06 0L248.26 304a.71.71 0 0 1 0 1.19" style="opacity:.5"/><path d="M221.21 321.17a.49.49 0 0 1-.44 0 .55.55 0 0 1-.29-.48v-2.29a3 3 0 0 1 1.45-2.54l.09-.06a.27.27 0 0 1 .4.24.47.47 0 0 0 .94 0 1.19 1.19 0 0 0-.61-1.05 1.17 1.17 0 0 0-1.21 0l-.09.05a3.9 3.9 0 0 0-1.91 3.35v2.27a1.49 1.49 0 0 0 .78 1.31 1.45 1.45 0 0 0 .7.17 1.47 1.47 0 0 0 .83-.25.44.44 0 0 0 .18-.26ZM216.74 318.59a.49.49 0 0 1-.44 0 .55.55 0 0 1-.29-.48v-2.27a3 3 0 0 1 1.45-2.55h.09a.28.28 0 0 1 .27 0 .27.27 0 0 1 .13.23.47.47 0 1 0 .94 0 1.19 1.19 0 0 0-.61-1 1.17 1.17 0 0 0-1.21 0l-.09.05a3.9 3.9 0 0 0-1.91 3.35v2.27a1.49 1.49 0 0 0 .78 1.31 1.45 1.45 0 0 0 .7.17 1.47 1.47 0 0 0 .83-.25.44.44 0 0 0 .18-.26ZM212.27 316a.52.52 0 0 1-.44 0 .55.55 0 0 1-.29-.48v-2.27a3 3 0 0 1 1.45-2.55l.09-.05a.28.28 0 0 1 .27 0 .27.27 0 0 1 .13.23.47.47 0 1 0 .94 0 1.19 1.19 0 0 0-.61-1 1.17 1.17 0 0 0-1.21 0l-.09.05a3.9 3.9 0 0 0-1.91 3.35v2.27a1.49 1.49 0 0 0 .78 1.31 1.45 1.45 0 0 0 .7.17 1.47 1.47 0 0 0 .83-.25.44.44 0 0 0 .18-.26ZM207.8 313.43a.52.52 0 0 1-.44 0 .55.55 0 0 1-.29-.48v-2.27a3 3 0 0 1 1.45-2.55l.09-.05a.28.28 0 0 1 .27 0 .27.27 0 0 1 .13.23.47.47 0 0 0 .94 0 1.19 1.19 0 0 0-.61-1 1.17 1.17 0 0 0-1.21 0l-.09.05a3.9 3.9 0 0 0-1.91 3.35v2.27a1.49 1.49 0 0 0 .78 1.31 1.45 1.45 0 0 0 .7.17 1.47 1.47 0 0 0 .83-.25.44.44 0 0 0 .18-.26ZM203.33 310.85a.52.52 0 0 1-.44 0 .55.55 0 0 1-.29-.48v-2.27a3 3 0 0 1 1.45-2.55h.09a.28.28 0 0 1 .27 0 .27.27 0 0 1 .13.23.47.47 0 0 0 .94 0 1.19 1.19 0 0 0-.61-1 1.17 1.17 0 0 0-1.21 0l-.09.05a3.9 3.9 0 0 0-1.91 3.35v2.27a1.49 1.49 0 0 0 .78 1.31 1.6 1.6 0 0 0 .7.17 1.47 1.47 0 0 0 .83-.25.44.44 0 0 0 .18-.26ZM198.86 308.27a.52.52 0 0 1-.44 0 .55.55 0 0 1-.29-.48v-2.29a3 3 0 0 1 1.45-2.55l.09-.05a.28.28 0 0 1 .27 0 .25.25 0 0 1 .13.23.47.47 0 1 0 .94 0 1.22 1.22 0 0 0-1.82-1l-.09.06a3.9 3.9 0 0 0-1.91 3.35v2.27a1.49 1.49 0 0 0 .78 1.31 1.6 1.6 0 0 0 .7.17 1.47 1.47 0 0 0 .83-.25.44.44 0 0 0 .18-.26Z" style="fill:#fff"/><path d="m251.34 298.95-25.86 14.93-33.66-19.43 25.87-14.93z" style="fill:#e6e6e6"/><path d="m252.83 298.46-27.02 12.72-31.92-22.19 27.03-12.71z" style="fill:#fafafa"/><path d="M192.5 258.75h-21.95l2 23.23a4.63 4.63 0 0 0 2.62 3.4 14.07 14.07 0 0 0 12.76 0 4.66 4.66 0 0 0 2.62-3.4Z" style="fill:#4ade80"/><path d="M193.9 257.48v-1.84h-.43a7.5 7.5 0 0 0-3.19-3.2c-4.83-2.79-12.67-2.79-17.5 0a7.45 7.45 0 0 0-3.19 3.2h-.44v1.86c0 1.82 1.21 3.65 3.63 5.05 4.83 2.79 12.67 2.79 17.5 0 2.42-1.4 3.63-3.24 3.62-5.07" style="fill:#e0e0e0"/><path d="M190.28 260.8c-4.83 2.79-12.67 2.79-17.5 0s-4.84-7.31 0-10.1 12.67-2.8 17.5 0 4.83 7.3 0 10.1" style="fill:#ebebeb"/><path d="M191.45 255v-1.47h-.35a6 6 0 0 0-2.56-2.56 15.47 15.47 0 0 0-14 0 5.92 5.92 0 0 0-2.56 2.56h-.35V255c0 1.47 1 2.94 2.91 4.05a15.47 15.47 0 0 0 14 0c1.94-1.13 2.91-2.6 2.91-4.05" style="fill:#e0e0e0"/><path d="M188.54 257.64a15.47 15.47 0 0 1-14 0c-3.88-2.23-3.88-5.86 0-8.09a15.47 15.47 0 0 1 14 0c3.87 2.23 3.87 5.86 0 8.09" style="fill:#f5f5f5"/><path d="M186.92 256.46a11.93 11.93 0 0 1-10.79 0c-2.89-1.66-3-4.32-.3-6a2.5 2.5 0 0 1 .3-.19 9 9 0 0 1 2.08-.86 12 12 0 0 1 8.71.86c2.99 1.73 2.99 4.47 0 6.19" style="fill:#f0f0f0"/><path d="M176.13 251.12a11.89 11.89 0 0 1 10.8 0 4 4 0 0 1 2.19 2.67c.23-1.27-.51-2.59-2.19-3.56a12 12 0 0 0-10.8 0c-1.69 1-2.42 2.29-2.2 3.56a4 4 0 0 1 2.2-2.67" style="fill:#e0e0e0"/><path d="m180.21 251.41-2.21 1.41-2.16-1.55v-.85a2.5 2.5 0 0 1 .3-.19 9 9 0 0 1 2.08-.86v.63Z" style="fill:#e0e0e0"/><path d="M440.86 115 316.38 43.08a3.05 3.05 0 0 0-3.62 0l-4.31 3 2.94 3.64v100.35c0 3.68 2.24 8 5 9.54l123.25 71.16.23 3.91 4.54-3.11a4.7 4.7 0 0 0 1.46-3.86V124.49c-.01-3.68-2.25-7.95-5.01-9.49" style="fill:#4ade80"/><path d="M440.86 115 316.38 43.08a3.05 3.05 0 0 0-3.62 0l-4.31 3 2.94 3.64v100.35c0 3.68 2.24 8 5 9.54l123.25 71.16.23 3.91 4.54-3.11a4.7 4.7 0 0 0 1.46-3.86V124.49c-.01-3.68-2.25-7.95-5.01-9.49" style="opacity:.30000000000000004"/><path d="m436.62 234.4-124.48-71.87c-2.75-1.59-5-5.86-5-9.54V49.77c0-3.67 2.24-5.36 5-3.77l124.48 71.87c2.76 1.59 5 5.86 5 9.54v103.21c0 3.68-2.24 5.38-5 3.78" style="fill:#4ade80"/><path d="m436.62 234.4-124.48-71.87c-2.75-1.59-5-5.86-5-9.54V49.77c0-3.67 2.24-5.36 5-3.77l124.48 71.87c2.76 1.59 5 5.86 5 9.54v103.21c0 3.68-2.24 5.38-5 3.78" style="fill:#4ade80"/><path d="M436.62 117.87 312.14 46c-2.75-1.59-5 .1-5 3.77v5l134.47 77.63v-5c.01-3.67-2.23-7.94-4.99-9.53" style="fill:#455a64"/><path d="M310.16 46.4a3.1 3.1 0 0 1 1.48.46l124.48 71.87c2.44 1.41 4.5 5.38 4.5 8.68v103.21c0 2-.79 3.38-2 3.38a3.06 3.06 0 0 1-1.49-.47l-124.49-71.87c-2.43-1.4-4.49-5.38-4.49-8.67V49.77c0-2.05.79-3.37 2-3.37m0-1c-1.77 0-3 1.63-3 4.37V153c0 3.68 2.24 7.95 5 9.54l124.47 71.86a4 4 0 0 0 2 .6c1.77 0 3-1.64 3-4.38V127.41c0-3.68-2.24-8-5-9.54L312.14 46a3.94 3.94 0 0 0-2-.6Z" style="fill:#4ade80"/><path d="M364.86 100a1 1 0 0 1-.53-.14l-47.39-27.32a1.06 1.06 0 0 1 1.06-1.83l47.39 27.36a1.06 1.06 0 0 1-.53 2ZM431.53 138.54a1 1 0 0 1-.53-.15l-35.1-20.26a1.06 1.06 0 1 1 1.06-1.84l35.1 20.27a1.06 1.06 0 0 1-.53 2ZM388.82 113.88a1.1 1.1 0 0 1-.53-.14L374 105.5a1.06 1.06 0 1 1 1.06-1.83l14.26 8.23a1.06 1.06 0 0 1-.53 2ZM364.86 166.41a1.1 1.1 0 0 1-.53-.14l-47.39-27.36a1.06 1.06 0 0 1 1.06-1.83l47.39 27.35a1.06 1.06 0 0 1 .38 1.45 1 1 0 0 1-.91.53M431.53 204.9a1 1 0 0 1-.53-.14l-35.1-20.26a1.06 1.06 0 0 1 1.06-1.84l35.1 20.27a1.06 1.06 0 0 1 .39 1.44 1.07 1.07 0 0 1-.92.53M388.82 180.24a1 1 0 0 1-.53-.14L374 171.87a1.06 1.06 0 1 1 1.06-1.83l14.26 8.23a1.06 1.06 0 0 1 .39 1.44 1.07 1.07 0 0 1-.89.53M364.86 182a1 1 0 0 1-.53-.14l-47.39-27.35a1.06 1.06 0 0 1 1.06-1.84L365.39 180a1.06 1.06 0 0 1-.53 2M416.59 211.88a1 1 0 0 1-.53-.14L395.9 200.1a1.06 1.06 0 1 1 1.06-1.83l20.16 11.64a1.05 1.05 0 0 1 .39 1.44 1.07 1.07 0 0 1-.92.53M388.82 195.85a1.1 1.1 0 0 1-.53-.14L374 187.48a1.06 1.06 0 0 1 1.06-1.84l14.26 8.23a1.06 1.06 0 0 1-.53 2ZM341.23 94.65a1 1 0 0 1-.53-.15l-23.76-13.71A1.06 1.06 0 0 1 318 79l23.76 13.71a1.06 1.06 0 0 1 .38 1.45 1 1 0 0 1-.91.49M409.66 134.16a1.1 1.1 0 0 1-.53-.14L374 113.75a1.06 1.06 0 1 1 1.06-1.83l35.1 20.26a1.06 1.06 0 0 1-.53 2ZM365.19 108.48a1 1 0 0 1-.53-.14l-14.26-8.23a1.06 1.06 0 0 1 1.06-1.84l14.26 8.23a1.06 1.06 0 0 1 .38 1.45 1 1 0 0 1-.91.53M364.86 116.54a1 1 0 0 1-.53-.15L316.94 89a1.06 1.06 0 0 1 1.06-1.8l47.39 27.36a1.06 1.06 0 0 1 .38 1.45 1 1 0 0 1-.91.53M405.78 140.16a1 1 0 0 1-.53-.14l-9.35-5.4a1.06 1.06 0 1 1 1.06-1.83l9.35 5.4a1.06 1.06 0 0 1 .39 1.44 1.07 1.07 0 0 1-.92.53M345.9 113.84a1.1 1.1 0 0 1-.53-.14l-9.37-5.4a1.06 1.06 0 0 1 1.06-1.84l9.35 5.4a1.06 1.06 0 0 1-.53 2ZM388.82 130.37a1.1 1.1 0 0 1-.53-.14L374 122a1.06 1.06 0 0 1 1.06-1.84l14.26 8.23a1.06 1.06 0 0 1-.53 2ZM332.66 106.19a1 1 0 0 1-.53-.14l-15.19-8.77a1.06 1.06 0 0 1 1.06-1.83l15.19 8.77a1.05 1.05 0 0 1-.53 2ZM365.19 125a1 1 0 0 1-.53-.14l-14.26-8.26a1.06 1.06 0 1 1 1.06-1.83l14.26 8.23a1.06 1.06 0 0 1-.53 2M364.86 133.63a1 1 0 0 1-.53-.14l-47.39-27.36a1.06 1.06 0 0 1 1.06-1.83l47.39 27.35a1.06 1.06 0 0 1 .38 1.45 1 1 0 0 1-.91.53M431.53 172.12a1 1 0 0 1-.53-.12l-35.1-20.26a1.06 1.06 0 0 1 1.06-1.84l35.1 20.27a1.06 1.06 0 0 1 .39 1.44 1.07 1.07 0 0 1-.92.51M388.82 147.46a1 1 0 0 1-.53-.14L374 139.09a1.06 1.06 0 1 1 1.06-1.83l14.26 8.23a1.07 1.07 0 0 1 .39 1.45 1.09 1.09 0 0 1-.89.52M341.23 128.23a1 1 0 0 1-.53-.14l-23.76-13.71a1.06 1.06 0 0 1 1.06-1.84l23.76 13.72a1.06 1.06 0 0 1-.53 2ZM409.66 167.75a1 1 0 0 1-.53-.15L374 147.34a1.06 1.06 0 0 1 1.06-1.84l35.1 20.27a1.06 1.06 0 0 1-.53 2ZM365.19 142.07a1.1 1.1 0 0 1-.53-.14l-14.26-8.24a1.06 1.06 0 1 1 1.06-1.83l14.26 8.23a1.06 1.06 0 0 1 .38 1.45 1 1 0 0 1-.91.53M364.86 150.12a1 1 0 0 1-.53-.14l-47.39-27.36a1.06 1.06 0 0 1 1.06-1.83l47.39 27.36a1.06 1.06 0 0 1-.53 2ZM405.78 173.75a1.1 1.1 0 0 1-.53-.14l-9.35-5.4a1.06 1.06 0 1 1 1.06-1.83l9.35 5.39a1.06 1.06 0 0 1-.53 2ZM345.9 147.43a1 1 0 0 1-.53-.15l-9.37-5.39a1.06 1.06 0 0 1 1.06-1.84l9.35 5.4a1.06 1.06 0 0 1-.53 2ZM388.82 164a1.1 1.1 0 0 1-.53-.14L374 155.59a1.06 1.06 0 0 1 1.06-1.84l14.29 8.25a1.06 1.06 0 0 1-.53 2M332.66 139.78a1 1 0 0 1-.53-.14l-15.19-8.77A1.06 1.06 0 0 1 318 129l15.19 8.76a1.06 1.06 0 0 1-.53 2ZM365.19 158.56a1 1 0 0 1-.53-.14l-14.26-8.23a1.06 1.06 0 0 1 1.06-1.84l14.26 8.24a1.06 1.06 0 0 1-.53 2ZM345.9 163.23a1 1 0 0 1-.53-.14l-9.35-5.4a1.06 1.06 0 1 1 1.06-1.83l9.35 5.4a1.05 1.05 0 0 1-.53 2ZM332.66 155.59a1.1 1.1 0 0 1-.53-.14l-15.19-8.77a1.06 1.06 0 0 1 1.06-1.84l15.19 8.77a1.06 1.06 0 0 1-.53 2ZM365.19 174.37a1.1 1.1 0 0 1-.53-.14L350.4 166a1.06 1.06 0 0 1 1.06-1.84l14.26 8.23a1.06 1.06 0 0 1 .38 1.45 1 1 0 0 1-.91.53" style="fill:#fff"/><path d="M326.85 82.83v38.34c0 .62-.22 1-.57 1.17l-1.47.81v-1.31l-.21-39.42 1.92-1a3.25 3.25 0 0 1 .33 1.41" style="fill:#263238"/><path d="m326.52 81.45-1.92 1-46.49-27.29-1.11-.64 1.53-.86h.05a.85.85 0 0 1 .91.07l46 26.49a2.8 2.8 0 0 1 1.03 1.23" style="fill:#37474f"/><path d="M325.19 83.66v38.09a1.26 1.26 0 0 1-.44 1.09h-.09a.89.89 0 0 1-.85-.1l-45.7-26.33a3.29 3.29 0 0 1-1.38-2.63V55.75a1.25 1.25 0 0 1 .42-1.07.4.4 0 0 1 .14-.08.9.9 0 0 1 .82.11L323.81 81a2.7 2.7 0 0 1 1 1.19 3.36 3.36 0 0 1 .38 1.47" style="fill:#455a64"/><text style="font-size:25.799850463867188px;fill:#fafafa;font-family:Montserrat-Bold,Montserrat;font-weight:700" transform="matrix(-.87 -.5 0 1 316.95 108.35)">/</text><path d="M277.38 54.64a.8.8 0 0 1 .42.13l46 26.49a2.54 2.54 0 0 1 .92 1.09 3 3 0 0 1 .33 1.33V122a1 1 0 0 1-.3.87h-.08a.4.4 0 0 1-.2 0 1 1 0 0 1-.42-.13l-46-26.5a3.08 3.08 0 0 1-1.26-2.42V55.6a1.09 1.09 0 0 1 .31-.88h.09a.4.4 0 0 1 .18 0m0-.26a.7.7 0 0 0-.28.06l-.14.08a1.28 1.28 0 0 0-.41 1.08v38.23a3.35 3.35 0 0 0 1.38 2.65l46 26.49a1.1 1.1 0 0 0 .54.16.8.8 0 0 0 .31-.06l.09-.05a1.27 1.27 0 0 0 .44-1.1V83.68a3.4 3.4 0 0 0-.36-1.44 2.84 2.84 0 0 0-1-1.2l-46-26.49a1.13 1.13 0 0 0-.55-.17Z" style="fill:#37474f"/><path d="M319.46 55.63c0 1.09-.77 1.53-1.71 1a3.75 3.75 0 0 1-1.71-3c0-1.09.76-1.53 1.71-1a3.81 3.81 0 0 1 1.71 3M325.82 59.55c0 1.09-.77 1.54-1.72 1a3.78 3.78 0 0 1-1.71-3c0-1.09.77-1.54 1.71-1a3.78 3.78 0 0 1 1.72 3M332.17 63.48c0 1.09-.76 1.53-1.71 1a3.81 3.81 0 0 1-1.71-3c0-1.09.77-1.53 1.71-1a3.75 3.75 0 0 1 1.71 3" style="fill:#fff"/></svg>