<svg xmlns="http://www.w3.org/2000/svg" viewBox="0 0 176.78271 16.99219"><polygon points="1.91992 16.99219 0 16.99219 7.65625 .19238 9.47998 .19238 17.16016 16.99219 15.21631 16.99219 8.56836 2.1123 1.91992 16.99219" /><polygon points="22.31982 16.99219 22.31982 .19238 24.16797 .19238 24.16797 15.38428 33.52783 15.38428 33.52783 16.99219 22.31982 16.99219" /><polygon points="38.87988 16.99219 38.87988 .19238 40.72803 .19238 40.72803 15.38428 50.08789 15.38428 50.08789 16.99219 38.87988 16.99219" /><polygon points="54.79199 16.99219 52.87207 16.99219 60.52832 .19238 62.35205 .19238 70.03223 16.99219 68.08838 16.99219 61.44043 2.1123 54.79199 16.99219" /><rect x="75.19189" y=".19238" width="1.84814" height="16.7998" /><polygon points="86.7124 16.99219 84.86426 16.99219 84.86426 .19238 86.37646 .19238 97.10449 13.7041 97.10449 .19238 98.95215 .19238 98.95215 16.99219 97.44043 16.99219 86.7124 3.47998 86.7124 16.99219" /><polygon points="121.24756 16.99219 119.30322 16.99219 113.63916 .19238 115.55957 .19238 120.35938 14.56836 125.32715 .19238 127.05518 .19238 131.97559 14.61621 136.84717 .19238 138.62354 .19238 132.95947 16.99219 131.03955 16.99219 126.14355 2.80811 121.24756 16.99219" /><rect x="144.23926" width="11.56787" height="1.6084" /><rect x="144.23926" y="7.68018" width="11.56787" height="1.56006" /><rect x="144.23926" y="15.38428" width="11.56787" height="1.60791"/><path d="M162.69482,.19238h7.2959c1.8877,0,3.34424,.37598,4.36816,1.12793s1.53613,1.81592,1.53613,3.19189c0,.95996-.23242,1.75635-.69629,2.38818s-1.07178,1.1001-1.82373,1.40381c1.05615,.25635,1.8877,.73193,2.49609,1.42822,.60791,.6958,.91162,1.61963,.91162,2.77197,0,1.43994-.52783,2.54785-1.58398,3.32373-1.05566,.77637-2.63184,1.16406-4.72803,1.16406h-7.77588v-1.51221h7.72803c1.47217,0,2.59229-.24756,3.35986-.74365,.76807-.49609,1.15234-1.28809,1.15234-2.37598s-.38428-1.87988-1.15234-2.37598c-.76758-.49609-1.8877-.74414-3.35986-.74414h-7.72803v-1.53613h7.15186c1.34424,0,2.37988-.24756,3.1084-.74414,.72754-.49561,1.0918-1.24756,1.0918-2.25586,0-1.00781-.36426-1.75977-1.0918-2.25586-.72852-.49561-1.76416-.74414-3.1084-.74414h-7.15186V.19238Z"/></svg>